<?xml version="1.0" encoding="UTF-8"?>
<svg xmlns="http://www.w3.org/2000/svg" xmlns:xlink="http://www.w3.org/1999/xlink" version="1.1" viewBox="0 0 688.07 783.11">
  <!-- Generator: Adobe Illustrator 30.5.1, SVG Export Plug-In . SVG Version: 2.1.4 Build 3)  -->
  <defs>
    <style>
      .st0 {
        fill: none;
      }

      .st1 {
        mix-blend-mode: multiply;
        opacity: .13;
      }

      .st2 {
        isolation: isolate;
      }

      .st3 {
        fill: #104458;
      }

      .st4 {
        clip-path: url(#clippath);
      }
    </style>
    <clipPath id="clippath">
      <rect class="st0" width="688.07" height="783.11"/>
    </clipPath>
  </defs>
  <g class="st2">
    <g id="Layer_1">
      <rect class="st3" width="688.07" height="783.11"/>
      <g class="st1">
        <g class="st4">
          <g>
            <path class="st3" d="M-600.49,515.66c-5.22-4.76-10.59-9.38-15.63-14.32-13.68-13.4-27.04-27.1-34.85-45.03-7.33-16.85-8.26-33.79.12-50.59,4.64-9.29,9.28-18.6,14.46-27.58,11.06-19.2,17.04-39.81,16.28-61.9-.29-8.25,3.31-11.58,9.89-14.7,15.22-7.23,26.87-18.89,38.53-30.9,18.46-19,35.21-40.14,58.31-54.03,25.55-15.37,52.56-16.78,80.16-5.79,8.87,3.53,17.6,7.46,26.18,11.65,14.88,7.28,26.1,19.08,36.87,31.22,9.91,11.18,19.45,22.7,28.79,34.36,5.42,6.77,10.86,13.72,15.02,21.29,12.22,22.2,23.11,45.02,31.29,69.13,6.68,19.66,13.54,39.37,22.1,58.25,8.04,17.72,18.1,34.56,27.86,51.45,7.67,13.29,16.03,26.19,24.47,39.01,7.62,11.57,17.93,20.81,28.46,29.57,17.72,14.74,17.59,31.34,3.36,48.87-4.86,5.98-10.53,10.25-17.73,13.17-27.17,11.01-55.36,17.77-84.41,21.23-50.23,6-98.51-2.42-145.67-19.42-30.7-11.07-58.62-27.46-86.02-44.82-27.81-17.61-53.4-38.11-77.84-60.12Z"/>
            <path class="st3" d="M344.31,290.18c-20.11,12.48-38.96,22.89-59.09,30.93-19.72,7.87-38.5,17.57-55.87,29.93-16.33,11.62-27.7,27.33-37.17,44.58-21.47,39.07-46.8,75.54-74.32,110.52-11.31,14.38-24.45,26.96-38.21,39.13-17.53,15.51-36.94,28.28-55.88,41.72-8,5.68-17.6,9.13-26.57,13.39-1.31.62-3.16.12-4.76.13.16-1.47-.07-3.13.54-4.38,6.83-13.87,11.36-28.45,15.3-43.39,4.53-17.15,4.78-34.59,5.19-51.96.44-18.24-.12-36.6-1.67-54.78-3.26-38.19-.81-75.79,12.28-111.9,7.34-20.25,16.97-39.72,26.47-59.1,9.9-20.19,19.02-40.65,25.85-62.08,9.64-30.26,11.88-61.06,6.46-92.39-1.06-6.14-2.13-12.3-2.85-18.49-2.12-18.43-.89-36.44,6.12-53.93,6.99-17.44,12.06-35.43,12.08-54.45,0-5.39-.39-10.77-.61-16.16-.21-5.11.68-6.34,5.38-5.9,11.21,1.06,22.26,2.82,32.54,7.87,10.5,5.16,20.33,11.26,29.01,19.17,9.88,9,20.47,16.92,33.22,21.61,2.59.95,5.24,2.76,6.97,4.9,10.16,12.63,24.22,18.65,39.05,23.17,10.72,3.27,21.74,5.57,32.53,8.63,4.75,1.35,9.38,3.27,13.87,5.35,6.06,2.81,9.61,7.75,10.81,14.34.75,4.09,1.6,8.16,2.24,12.27,2.14,13.81,7.64,26.42,15.16,37.91,6.57,10.04,14.4,19.29,21.97,28.65,14.69,18.17,29.17,36.53,34.56,59.9,5.62,24.39.44,46.05-18.28,63.6-4.54,4.25-9.21,8.36-12.33,11.19Z"/>
            <path class="st3" d="M-44.2,564.35c-20.34-29.91-41.14-59.52-60.85-89.84-11.77-18.1-21.41-37.61-28.52-58.02-18.84-54.01-31.28-109.56-35.55-166.62-4.47-59.65,7.64-116.59,31.28-171.31,11.78-27.28,27.7-52.05,44.97-76.03,13.35-18.53,26.95-36.9,40.67-55.16,14.36-19.12,24.5-40.46,33.58-62.4,1.91-4.61,3.81-9.22,5.84-13.78,4.3-9.63,8.24-11.12,17.26-5.18,8.99,5.92,18.3,11.84,25.84,19.38,12.01,12,23.48,24.74,33.69,38.28,13.79,18.28,21.22,39.49,22.62,62.41.95,15.49-1.86,30.65-6.76,45.37-2.88,8.67-6.39,17.18-8.67,26-4.85,18.81-4.26,37.82-1.41,56.96,2.13,14.36,4.21,28.87,4.4,43.34.36,26.61-7.24,51.83-17.62,76-9.34,21.75-19.68,43.1-30.33,64.25-15.22,30.19-22.99,62.41-26.23,95.7-1.48,15.22-1.03,30.79.12,46.08,2.07,27.42,3.01,54.78,1.08,82.22-1.53,21.78-6.51,42.69-15.72,62.54-1.05,2.26-2.14,4.52-3.42,6.65-2.1,3.48-4.13,3.78-6.68.55-4.89-6.2-9.49-12.63-14.18-18.99-1.98-2.68-3.88-5.4-5.82-8.11.14-.1.28-.19.42-.29Z"/>
            <path class="st3" d="M271.03,804.47c11.07-21.23,28.18-37.14,46.3-51.76,8.93-7.21,19.75-12.17,29.94-17.71,7.96-4.33,16.17-3.47,23.71,1.25,4.17,2.61,8.18,5.71,11.64,9.19,14.59,14.65,31.93,25.37,50.32,34.16,18.39,8.79,38.33,10.71,58.48,8.88,12.25-1.11,23.74-.42,35.07,5.41,12.67,6.52,25.69,4.8,38.41-1.24,6.54-3.1,6.99-2.92,10.45,3.38,8.46,15.38,21.16,26.4,35.49,35.99,9.99,6.69,20.04,13.39,29.36,20.96,11.23,9.12,18.49,21.46,22.95,35.02,12.58,38.21,11.75,76.17-4.9,113.06-7.19,15.92-15.97,30.97-30.61,41.78-5.86,4.33-10.79,5.76-18.19,3.42-22.6-7.14-45.72-12.22-69.54-13.47-31.52-1.65-63.01-4.1-94.55-4.98-26.74-.75-53,4.39-78.73,11.26-20.84,5.57-38.81,16.53-53.26,32.97-6.64,7.56-9.48,16.44-10.71,26.06-.48,3.76-2.17,5.34-5.79,3.93-17.34-6.79-35.87-10.41-51.99-20.52-6.41-4.02-10.82-8.86-12.85-15.99-4.99-17.6-10.09-35.15-9.98-53.73.31-50.98,5.91-101.15,22.77-149.6,2.32-6.66,4.45-13.43,7.42-19.8,5.97-12.77,12.47-25.3,18.75-37.93Z"/>
            <path class="st3" d="M644.72,1076.1c8.31,6.22,16.73,12.29,24.89,18.69,16.66,13.07,33.29,26.19,49.69,39.58,3.79,3.1,7.45,6.94,9.74,11.2,12.54,23.4,27.55,45.58,35.88,71.12,4.39,13.46,9.04,26.88,8.1,41.31-.48,7.44-1.04,14.98-2.75,22.2-5.55,23.5-22.6,36.77-46.95,36.29-9.5-.19-19.05-1.61-28.44-3.27-15.25-2.68-30.41-2.91-45.89-2.04-25.8,1.44-43.22,15.14-57.05,35.22-3.3,4.79-6.07,9.95-9.37,14.74-5.62,8.16-10.78,9.2-18.85,3.46-3.67-2.62-6.81-6.04-9.95-9.33-4.58-4.8-8.83-9.92-13.42-14.72-9.62-10.05-21.84-15.03-35.3-16.86-9.45-1.28-19.04-1.85-28.58-2.19-27.1-.98-53.99-3.18-79.73-12.55-29.17-10.62-45.92-31.47-50.99-62.1-2.8-16.94-2.09-33.97-2.63-50.98-.61-19.09-1.64-38.17-2.89-57.23-.55-8.33-2.85-16.33-7.13-23.7-2.65-4.57-5.71-7.56-11.5-8.19-6.49-.7-7.6-2.84-6.28-9.27,1.42-6.95,4-13.14,9.05-18.73,15.2-16.81,34.6-25.6,56.02-30.39,30.54-6.83,61.45-10.23,92.84-7.82,24.04,1.84,48.13,3.03,72.14,5.2,29.17,2.63,57.39,9.41,84,21.96,5.23,2.47,9.93,6.05,14.87,9.12.16-.24.32-.47.48-.71Z"/>
            <path class="st3" d="M-115.12,1166.21c-10.4,6.13-18.89,12.56-28.42,16.43-17.72,7.2-35.82,7.59-53.41-1.55-10.14-5.27-20.44-10.26-30.67-15.36-18.56-9.26-38.08-14.7-58.94-13.38-9.15.58-14.57-2.6-18.57-10.97-8.54-17.89-23.36-30.58-37.81-43.59-14.38-12.95-29.19-25.63-42.08-39.99-26.46-29.49-33.17-63.57-19.19-101.06,3.47-9.31,7.59-18.39,11.76-27.42,5.93-12.85,15.36-23.16,25.45-32.77,11.87-11.31,24.4-21.93,36.34-33.18,12.06-11.37,26.07-19.62,40.32-27.89,29.43-17.09,61.58-27.67,92.91-40.13,21.82-8.68,42.68-18.85,62.49-31.29,18.92-11.89,38.24-23.25,56.31-36.34,10.73-7.77,19.41-18.37,28.95-27.76,4.6-4.52,8.78-9.52,13.66-13.71,7.38-6.34,16.08-7.71,25.18-4.3,13.92,5.21,24.76,13.12,30.99,27.9,15.44,36.64,23.68,74.82,26.96,114.15.98,11.81-.07,23.86-.98,35.74-4.41,58.04-22.51,111.64-51.43,162.1-19.1,33.33-40.69,64.78-65.27,94.17-14.62,17.49-30.25,34.13-44.56,50.19Z"/>
            <path class="st3" d="M46.21,586.05c18.37-14.92,37.53-28.99,54.86-45.03,13.32-12.33,25.19-26.5,36.18-41,15.04-19.84,28.79-40.67,42.77-61.3,5.58-8.24,10.38-17.02,15.39-25.64,5.53-9.53,14.13-16.16,24.27-18.08,53.07-10.03,106.08-20.82,160.4-21.98,27.89-.6,54.75,4.1,80.12,15.61,26.59,12.06,49,29.72,65.59,53.97,17.11,25,24.73,52.5,19.12,82.79-2.34,12.66-4.81,25.36-8.38,37.7-4.37,15.11-4.68,30.31-3.63,45.72.59,8.71,1.86,17.39,1.91,26.1.04,6.14-.75,12.49-2.41,18.39-1.91,6.78-8.12,8.24-12.18,2.66-6.07-8.35-11.1-17.48-16.18-26.51-3.25-5.77-5.58-12.05-8.67-17.92-5.11-9.75-12.94-17.18-21.25-24.17-19.09-16.07-41.07-26.58-64.72-33.92-44.4-13.79-89.77-16.57-135.72-11.35-44.79,5.09-88.56,14.72-130.28,32.18-24.89,10.42-49.37,21.8-74.09,32.61-10.66,4.66-21.38,9.49-33.2,10.15-4.43.25-9.17-.19-13.34-1.59-4.39-1.47-9.85-1.72-12.35-6.85,3.46-2.16,7.03-4.17,10.37-6.5,8.17-5.72,16.24-11.59,24.34-17.41.36.46.72.92,1.08,1.38Z"/>
            <path class="st3" d="M-187.48,538.51c-15.43-13.63-28.33-29.33-38.93-46.82-12.9-21.27-26.53-42.16-35.08-65.81-9.02-24.97-17.77-50.09-28.13-74.51-11.66-27.5-20.62-56.09-34.31-82.79-7.82-15.24-17.02-29.4-27.55-42.81-5.62-7.16-10.69-14.76-16.45-21.81-8.2-10.05-18.11-18.29-29.05-25.2-6.66-4.21-13.6-7.97-20.41-11.94-1.79-1.04-3.67-1.96-5.36-3.15-4.86-3.42-4.77-5.49.35-9.31.99-.74,2.14-1.27,3.17-1.97,9.69-6.61,14.09-15.98,14.43-27.52.29-9.75-1.63-19.09-5.8-27.82-4.77-9.99-6.65-20.29-6.35-31.36.41-15.26-5.51-29.2-10.67-43.2-2.46-6.68-2.16-7.85,4.51-9.41,2.82-.66,5.68-1.58,8.54-1.65,14.47-.35,27.61-5.27,40.56-11.13,15.62-7.07,31.91-11.24,49-13.56,24.32-3.31,45.18,3.78,64.14,17.97,13.43,10.05,23.83,23.04,32.95,37.05,3.03,4.66,4.39,9.78,4.24,15.37-.24,9.16-1.05,18.15-3.78,27.03-6.1,19.89-10.83,40.11-11.74,61.02-1.45,33.31-.07,66.42,7.42,99.07,8.67,37.78,20.05,74.69,38.11,109.09,12.73,24.23,26.75,47.8,40.55,71.45,9.31,15.95,15.48,32.99,20.03,50.79,3.17,12.42,3.33,24.8-.49,36.9-3.87,12.25-8.7,24.2-13.28,36.21-.86,2.27-2.2,4.52-3.84,6.3-4.07,4.42-8.09,5.23-13.12,1.69-8.13-5.72-15.8-12.09-23.66-18.19Z"/>
            <path class="st3" d="M262.14,796.41c-25,41.25-38.2,83.4-45.42,127.67-4.02,24.66-6.23,49.47-6.65,74.46-.27,15.82-.19,31.58,3.77,47.08.63,2.47-.1,5.28-.2,7.93-1.95-1.95-4.23-3.66-5.79-5.88-12.85-18.22-21.58-38.31-27.05-59.88-8.82-34.79-9.55-69.83-4-105.18,4.63-29.54,11.6-58.71,13.28-88.73,1.15-20.62-.61-40.73-7.29-60.27-4.58-13.38-9.59-26.62-18.69-37.79-7.91-9.71-17.03-16.81-30.68-15.97-8,.49-13.11-4.55-16.19-11.51-4-9.05-2.4-17.96,1.52-26.55,9.02-19.78,23.57-32.58,45.38-37.08,23.82-4.91,47.61-7.07,71.82-3.48,16.51,2.45,33.1,2.72,49.74.71,7.61-.92,14.79-2.67,20.72-7.59,5.66-4.7,11.35-4.31,17.35-1.14,1.84.97,3.65,2.01,5.37,3.18,17.67,11.97,37.76,16.96,58.42,20.22,17.65,2.79,35.3,5.6,53,8.09,14.87,2.1,27.63,8.7,39.51,17.41,6.19,4.53,10.29,10.79,13.84,17.43,15.44,28.85,23.21,59.49,21.45,92.34-.31,5.81-.48,11.63-1.08,17.41-.37,3.61-2.29,6.22-6.46,6.21-16.56-.03-33.26,3.25-49.64-1.07-8.36-2.21-16.84-4.74-24.52-8.61-16.74-8.44-32.18-18.74-45.37-32.53-8.48-8.86-19.59-13.94-32.56-13.18-8.59.5-16.02,4.18-23.3,8.2-30.54,16.88-54.67,40.3-70.27,68.11Z"/>
            <path class="st3" d="M694.27,747.67c9.83,7.81,21.12,16.93,32.56,25.84,9.49,7.39,19.03,14.73,28.8,21.74,9.89,7.1,21.01,11.69,32.91,14.24,12.51,2.68,23.27,8.33,32.44,17.38,5.02,4.95,7.9,10.68,8.5,17.48.54,6.19,1.2,12.51.5,18.63-3.89,34.18,2.27,66.92,12.58,99.33,4.53,14.24,6.97,29.12,5.7,44.24-1.94,23.16-11.94,43.08-26.16,60.87-17.63,22.06-40.36,38.07-64.63,51.99-3.94,2.26-8.58,3.32-12.43,5.69-8.77,5.38-15.18,2.06-22.24-3.87-14.91-12.55-30.23-24.65-45.81-36.35-12.26-9.21-25.17-17.56-37.82-26.25-4.78-3.29-5.16-4.71-.86-8.35,7.36-6.23,13.63-13.25,18.8-21.42,29.58-46.68,34.21-96.27,16.62-148.05-6.72-19.79-19.84-35.35-37.2-47.11-6.19-4.19-12.59-8.08-18.86-12.16-14.85-9.67-27.67-21.06-34.27-38.25-2.59-6.74-5.99-8.15-12.83-6.11-6.35,1.9-12.43,4.67-18.71,6.81-7.46,2.55-14.7,1.77-21.69-1.93-3.27-1.74-4.98-3.9-4.38-7.91.8-5.33,1.42-10.74,1.43-16.12.01-5.84,2.77-9.17,7.79-11.49,24.34-11.25,49.49-19.31,76.57-20.05,20.52-.56,40.72,1.22,59.79,9.47,7.21,3.12,14.03,7.15,22.89,11.72Z"/>
            <path class="st3" d="M943.85-85.05c23.42,5,43.32,17.24,62.24,30.8,9.33,6.69,17,15.78,25.06,24.13,6.29,6.52,7.66,14.66,5.13,23.19-1.4,4.72-3.32,9.4-5.75,13.68-10.23,17.97-15.92,37.55-19.49,57.62-3.56,20.07-.08,39.8,7.05,58.73,4.34,11.51,6.74,22.77,4.15,35.24-2.9,13.95,2.23,26.04,11.45,36.68,4.74,5.47,4.68,5.96-.47,10.98-12.57,12.26-19.79,27.44-25.21,43.81-3.78,11.41-7.55,22.89-12.36,33.89-5.79,13.26-15.75,23.55-27.62,31.47-33.47,22.33-70.26,31.66-110.27,25.47-17.26-2.67-34.11-7.12-48.44-18.34-5.74-4.49-8.43-8.86-8.16-16.61.85-23.69-.43-47.32-5.58-70.61-6.82-30.82-12.88-61.82-20.44-92.45-6.41-25.97-18.38-49.91-31.87-72.86-10.93-18.59-26.3-32.99-45.99-42.52-9.06-4.38-18.38-4.75-27.97-3.37-3.76.54-5.73-.67-5.33-4.53,1.92-18.52.45-37.35,5.9-55.58,2.17-7.25,5.65-12.8,11.98-16.65,15.63-9.51,31.18-19.11,49.11-23.96,49.22-13.31,99.05-21.31,150.25-18,7.03.45,14.13.7,21.06,1.87,13.9,2.35,27.71,5.26,41.56,7.94Z"/>
            <path class="st3" d="M781.86,347.6c-3.78,9.67-7.38,19.4-11.37,28.98-8.14,19.55-16.35,39.07-24.88,58.45-1.97,4.48-4.7,9.03-8.2,12.38-19.21,18.33-36.57,38.72-58.96,53.56-11.8,7.82-23.49,15.88-37.64,18.84-7.29,1.52-14.72,3-22.13,3.28-24.13.93-41.47-11.96-47.51-35.56-2.36-9.21-3.53-18.79-4.44-28.28-1.48-15.41-5.31-30.08-10.28-44.77-8.28-24.48-26.13-37.61-49.17-45.58-5.5-1.9-11.21-3.2-16.71-5.09-9.36-3.23-11.75-7.93-8.36-17.24,1.54-4.24,4-8.18,6.34-12.08,3.41-5.7,7.2-11.16,10.6-16.86,7.12-11.95,8.66-25.06,6.82-38.52-1.29-9.45-3.3-18.84-5.52-28.13-6.29-26.37-11.35-52.88-9.2-80.18,2.45-30.95,18.07-52.65,46.24-65.72,15.58-7.22,32.18-11.08,48.43-16.15,18.23-5.68,36.35-11.77,54.38-18.07,7.88-2.75,14.98-7.1,20.94-13.2,3.69-3.78,5.77-7.52,4.82-13.27-1.06-6.45.71-8.08,7.26-8.53,7.08-.48,13.74.34,20.47,3.72,20.26,10.15,33.91,26.51,44.24,45.87,14.73,27.61,26.26,56.49,32.32,87.38,4.64,23.66,9.93,47.19,14.25,70.91,5.25,28.81,6.25,57.82,1.27,86.81-.98,5.7-3.18,11.18-4.82,16.77.27.09.54.18.81.28Z"/>
            <path class="st3" d="M949.24-95.77c-46.42-13.08-90.57-14.55-135.16-9.69-24.84,2.71-49.34,7.21-73.53,13.47-15.32,3.96-30.49,8.25-44.36,16.21-2.21,1.27-5.11,1.32-7.7,1.93,1.36-2.4,2.4-5.05,4.12-7.15,14.12-17.25,31.15-31.02,50.49-42.06,31.17-17.79,64.75-27.85,100.29-31.94,29.71-3.42,59.68-4.49,89.06-10.9,20.17-4.4,39.09-11.46,56.14-23.12,11.67-7.98,23.1-16.35,31.42-28.1,7.24-10.22,11.66-20.9,7.2-33.83-2.61-7.58.89-13.85,6.77-18.68,7.65-6.28,16.67-7.11,26-5.62,21.47,3.41,37.7,14.02,47.85,33.83,11.09,21.64,19.53,43.99,22.53,68.28,2.04,16.57,6.21,32.62,12.6,48.12,2.92,7.09,6.52,13.54,12.85,17.94,6.04,4.2,7.19,9.79,5.73,16.42-.45,2.03-.96,4.05-1.63,6.02-6.82,20.22-6.26,40.91-3.89,61.7,2.03,17.76,4.03,35.52,6.35,53.23,1.95,14.89-1.01,28.95-6.23,42.73-2.72,7.17-7.65,12.79-13.1,17.99-23.68,22.58-51.14,38.25-83.26,45.32-5.68,1.25-11.34,2.65-17.07,3.61-3.57.6-6.6-.54-7.71-4.56-4.4-15.97-12.02-31.18-12.22-48.13-.1-8.65.07-17.5,1.75-25.93,3.66-18.39,9.47-36.01,19.24-52.41,6.27-10.53,8.2-22.59,4.01-34.9-2.77-8.14-8.31-14.32-14.12-20.26-24.42-24.93-53.43-41.93-84.4-49.53Z"/>
            <path class="st3" d="M1111.59,307.66c-4.9,11.55-10.67,24.87-16.21,38.28-4.59,11.12-9.11,22.27-13.26,33.55-4.2,11.43-5.66,23.37-4.93,35.52.76,12.77-1.82,24.65-8.09,35.9-3.43,6.16-8.18,10.47-14.57,12.86-5.82,2.17-11.74,4.5-17.82,5.46-33.98,5.38-63.88,20.06-92.36,38.64-12.52,8.17-26.2,14.49-41.11,17.31-22.84,4.31-44.71,0-65.65-8.96-25.97-11.1-47.47-28.73-67.36-48.4-3.23-3.19-5.49-7.38-8.8-10.46-7.53-7.01-6.04-14.08-2.2-22.47,8.11-17.72,15.68-35.71,22.8-53.86,5.6-14.28,10.21-28.94,15.2-43.45,1.89-5.49,3.16-6.23,7.82-3.06,7.96,5.43,16.41,9.6,25.66,12.4,52.88,16.04,101.91,7.27,147.11-23.51,17.27-11.76,28.77-28.56,35.46-48.43,2.39-7.09,4.43-14.29,6.69-21.42,5.35-16.89,12.91-32.29,27.71-43.24,5.8-4.29,6.25-7.95,2.46-13.99-3.52-5.61-7.82-10.73-11.56-16.21-4.45-6.51-5.63-13.69-3.93-21.42.8-3.62,2.43-5.84,6.46-6.34,5.35-.66,10.73-1.5,15.92-2.93,5.63-1.55,9.57.22,13.15,4.44,17.33,20.45,31.82,42.54,39.76,68.43,6.02,19.62,9.69,39.57,6.84,60.15-1.08,7.78-3.14,15.43-5.18,25.19Z"/>
            <path class="st3" d="M-655.94,755.89c-9.87-8.14-16.13-18.82-21.07-30.42-2.6-6.11-5.18-12.25-8.05-18.24-4.98-10.39-12.09-19-22.76-23.87-10.86-4.96-17.76-13.08-21.65-24.2-3.15-9.01-6.38-18.02-10.18-26.76-3.55-8.18-3.51-16.42-.57-24.32,4.48-12.03,9.15-24.11,15.18-35.4,11.03-20.66,27.49-36.3,48.11-47.46,8.85-4.79,18.27-7.84,28.26-9.36,6.08-.93,11.47-.08,16.55,3.51,14.58,10.3,29.58,20.03,43.82,30.78,32.52,24.55,65.69,48.07,102.13,66.55,31.68,16.06,64.82,27.64,99.96,33.91,24.69,4.41,49.4,6.39,74.39,6.57,18.04.13,35.58-2.85,52.91-7.43,10.05-2.66,20.04-5.55,30.13-8.02,1.55-.38,3.81.59,5.14,1.67.53.43-.19,3.14-1.03,4.34-1.65,2.37-3.55,4.69-5.75,6.54-11.76,9.86-23.04,20.43-37.06,27.17-3.68,1.77-7.68,3.14-11.68,3.97-35.53,7.37-71.11,6.47-106.54-.52-19.97-3.94-39.67-9.21-59.6-13.36-26.36-5.48-52.71-6.42-78.93,1.41-23.92,7.15-41.95,21.35-53.56,43.5-2.7,5.15-4.65,10.7-7.51,15.74-3.05,5.38-6.6,10.52-10.26,15.52-3.32,4.53-7.83,7.37-13.69,7.65-1.65.08-3.3.43-4.92.81-6.71,1.56-6.89,1.79-8.1,8.86-1.31,7.67-2.7,8.51-9.61,6.1-9.2-3.21-17.15-8.36-24.05-15.23Z"/>
            <path class="st3" d="M91.84,762.18c8.74,12.12,16.61,21.28,22.48,31.58,9.84,17.29,11.71,36.64,12.14,56.26.82,37.43-2.35,74.45-7.84,111.49-4.69,31.62,2.97,61.07,20.84,87.97,7.48,11.26,15.74,21.52,25.28,31.1,10.86,10.9,20.68,22.72,25.73,37.92,4.3,12.94,4.31,25.45-.92,37.84-7.56,17.95-19.1,32.51-37.11,41.09-7.18,3.42-14.29,7-21.64,10-15.04,6.14-25.95,16.8-32.72,31.17-4.33,9.18-10.52,15.31-19.75,18.95-10.16,4.01-20.39,7.91-30.31,12.47-9.2,4.22-18.51,4-27.71,1.37-30.84-8.81-57.78-24.11-77.94-49.64-9.31-11.8-15.89-25.09-19.31-39.95-2.14-9.29-1.4-17.32,4.33-25.38,10.94-15.38,20.75-31.57,31.77-46.89,19.48-27.06,37.84-54.79,54.05-83.94,37.55-67.51,52.98-140.04,49.19-216.86-1.11-22.54-8.28-43.89-14.71-65.33-1.43-4.76-2.9-9.53-3.84-14.39-.16-.83,2.8-3.34,3.48-3.06,4.99,2.08,10.55,3.79,14.45,7.27,11.08,9.9,21.46,20.58,30.06,28.96Z"/>
            <path class="st3" d="M-689.97,184.48c11.69-10.67,27.04-20.43,43.13-29.18,16.76-9.12,33.89-17.7,49.94-27.94,24.25-15.47,46.1-33.91,62.93-57.69,5.51-7.79,11.33-15.37,17.26-22.84,8.78-11.06,21.12-15.97,34.46-18.2,10.39-1.74,20.82-.43,30.48,4.04,13.11,6.07,21.33,16.14,20.86,31.05-.44,14.08,2.09,27.2,8.28,39.77,1.27,2.58,2.01,5.46,2.71,8.27,4.12,16.45,1.45,23.29-12.62,32.77-2.06,1.39-4.21,2.69-6.08,4.31-9.35,8.1-9.74,14.2-.52,22.72,4.19,3.87,9.34,7,14.55,9.39,23.21,10.65,41.9,26.65,57.12,46.93,6.95,9.27,13.81,18.6,20.6,27.99.64.88.5,2.31.73,3.49-.95-.58-2.1-.99-2.83-1.77-2.24-2.43-4.35-4.99-6.47-7.54-10.93-13.18-22.63-26.2-37.15-34.82-25.41-15.06-52.22-27.76-83.29-25.01-19.05,1.68-36.72,7.56-51.78,19.36-11.4,8.93-21.88,19.05-32.51,28.93-5.47,5.08-10.3,10.84-15.52,16.21-3.16,3.25-5.99,7.61-9.89,9.18-4.81,1.93-7.55-4.05-11.51-6.05-20.9-10.56-42.73-13.5-65.26-6.84-6.68,1.97-11.49,2.29-16.68-3.08-5.52-5.7-12.7-9.14-20.35-11.61-9.43-3.04-10.73-5.66-9.16-15.76,2.04-13.14,8.03-24.32,18.55-36.07Z"/>
            <path class="st3" d="M348.54,148.97c-6.3-8.78-12.52-17.61-18.9-26.33-7.23-9.89-12.17-20.74-14.38-32.81-.52-2.86-1.49-5.68-1.7-8.55-1.56-21.43-15.67-30.8-34.29-35.73-10.04-2.66-20.25-4.68-30.23-7.5-13.31-3.77-25.86-9.05-35.29-19.91-4.96-5.72-5.27-7.72.52-11.96,8.38-6.12,16.6-12.77,25.79-17.4,19.87-9.99,40.15-8.74,60.06.77,13.38,6.4,24.23,15.86,33.51,27.32,12.88,15.91,23.32,33.42,32.77,51.44,10.76,20.53,25.09,38.11,41.64,54.06,8.99,8.66,17.94,17.32,24.66,27.96,9.32,14.76,15.19,30.69,13.52,48.33-2.09,22.18,2.93,42.91,10.95,63.22,3.05,7.72,6.07,15.46,9.2,23.15,3.55,8.72,2.77,17.09-1.96,25.11-2.32,3.93-4.55,8-7.45,11.48-11.5,13.77-24.42,26.12-39.64,35.71-3.63,2.29-8.52,3.71-12.81,3.68-55.17-.49-109.29,8.12-163.26,18.2-6.94,1.3-13.9,2.55-20.89,3.59-1.37.2-2.91-.64-4.36-1,.62-1.42.96-3.06,1.9-4.22,8.11-10.13,17.82-18.12,29.07-24.92,19.68-11.88,40.95-20.13,61.71-29.56,20.59-9.35,39.31-21.52,56.64-35.92,3.15-2.62,6.17-5.7,8.35-9.13,14.35-22.51,19.18-46.12,10.41-72.41-6.37-19.08-18.29-34.34-29.62-50.19-1.69-2.36-3.65-4.53-5.48-6.8-.15.1-.29.21-.44.31Z"/>
            <path class="st3" d="M-464.25,1171.04c-5.94-9.72-11.78-19.56-17.91-29.21-12.84-20.23-27.35-39.14-45.53-54.92-5.31-4.61-7.73-9.44-7.03-16.78,1.74-18.18-2.75-35.51-8.64-52.58-3.4-9.85-6.29-19.89-9.12-29.93-4.3-15.29-8.29-30.67-12.52-45.98-5.95-21.5-6.21-43.26-2.72-65.1,1.42-8.88,4.05-11.12,11.76-9.14,20.13,5.16,40.48,3.53,60.86,3.37,39.55-.31,78.33-5.86,116.43-16.16,13.9-3.76,27.53-8.55,41.3-12.82.88-.27,1.88-.14,2.83-.2-.2.96-.16,2.09-.66,2.85-1.62,2.47-3.35,4.89-5.22,7.19-12.87,15.87-26.94,30.58-42.94,43.33-11.57,9.22-20.01,20.59-25.06,34.55-2.03,5.6-4.65,11-7.17,16.4-12.38,26.55-13.24,53.78-4.2,81.32,2.44,7.44,6.04,14.73,10.3,21.31,9.77,15.1,22.05,28.16,35.25,40.35,8.75,8.09,17.44,16.26,26.2,24.35,3.41,3.15,4.04,5.95,1.11,10.24-15.01,22.02-16.99,46.3-10.63,71.43,2.79,11.02,3.1,14.07-9.24,14.02-34.89-.15-66.64-10.1-93.4-33.44-1.49-1.3-2.68-2.93-4.05-4.45Z"/>
            <path class="st3" d="M-755.98,555.39c-13.5-12.77-20.55-28.86-23.76-46.85-2.38-13.36-1.31-26.57,2.86-39.41,2.95-9.07,6.25-18.07,10.04-26.82,11.66-26.94,11.4-54.04,1.84-81.39-.68-1.96-1.66-3.81-2.32-5.78-.92-2.72-.38-4.94,2.7-5.82,1.99-.57,4.05-.91,6.05-1.47,8.99-2.51,17.2-6.69,23.39-13.65,7.43-8.35,14.58-17.02,21.08-26.1,13.59-18.98,29.7-34.89,52.07-42.82,19.78-7.02,39.28-4.79,58.06,4.37.74.36,1.46.8,2.14,1.27,3.62,2.48,4.34,5.5.95,7.99-6.31,4.64-13.09,8.65-19.8,12.71-1.72,1.04-3.99,1.15-5.91,1.92-5.14,2.08-7.96,5.68-7.54,11.54.32,4.56.45,9.14.4,13.71-.19,18.24-4.96,35.28-13.64,51.27-4.75,8.75-9.43,17.55-14.19,26.3-13.05,23.98-11.35,47.74.78,71.48,5.54,10.85,13.59,19.78,21.27,29.03,2.22,2.67,1.46,4.32-1.98,4.93-8.96,1.59-18.28,2.16-26.81,5.05-26.49,8.99-46.92,26.2-62.38,49.32-8.21,12.28-9.43,12.65-20.68,3.41-1.6-1.32-3.08-2.79-4.61-4.19Z"/>
            <path class="st3" d="M-94.93,716.37c-15.7,13.87-33.32,24.92-51.18,35.8-35.87,21.85-75.52,34.9-114.01,50.72-20.74,8.52-42.41,13.79-63.84,19.98-14.3,4.13-28.24,9.49-42.45,13.93-38.13,11.92-77.05,19.38-117.12,20.12-14.4.27-28.81.66-43.21.73-14.58.07-28.47-3.73-42.33-7.83-13.06-3.87-19.48-14.79-26.74-24.74-2.19-3,.33-7.32,3.96-7.77,1.47-.18,2.98-.09,4.46,0,60.78,3.53,119.88-5.1,177.69-23.93,29.29-9.54,58.11-20.17,86.44-32.28,31.75-13.58,58.01-34.35,80.4-60.14,8.91-10.27,18.66-19.3,29.99-26.58,20.04-12.88,40.1-25.55,62.7-34.01,24.94-9.35,49.36-10.23,74.11-.34,7.83,3.13,16.01,5.59,23.41,9.54,9.91,5.29,10.86,10.03,4.31,19.03-9.35,12.84-18.87,25.61-31.59,35.5-5.1,3.97-10.01,8.18-15,12.28Z"/>
            <path class="st3" d="M-109.12,1177.15c.38-.32.76-.64,1.15-.95,4.28-3.34,8.56-6.68,12.83-10.02,4.93,4.24,2.26,10.23,3.27,15.32,4.38,22.14,15.02,40.82,29.97,57.31,10.42,11.5,22.35,21.17,35.88,28.81,3.77,2.13,4.27,4.73,2.11,8.58-10.83,19.38-27.98,30.29-48.46,37.07-22.5,7.46-44.2,3.47-65.72-4.02-5.63-1.96-11.25-4.02-16.71-6.4-16.94-7.36-34.69-8.92-52.66-6.47-22.74,3.09-41.21-5.27-56.52-20.75-9.92-10.03-20.81-18.24-32.71-25.6-20.84-12.88-37.03-30.12-45.31-53.57-7.5-21.23-5.64-42.1,4.88-62.05,2.78-5.27,5.02-5.49,8.92-1.26,6.49,7.02,11.23,15.05,14.68,24,3.93,10.2,4.51,10.81,15.26,9.81,25.64-2.39,49.36,3.32,71.82,15.4,7,3.77,14.06,7.43,21.18,10.97,29.53,14.66,57.67,11.65,84.44-6.95,4.07-2.83,7.71-6.26,11.56-9.41.04.05.09.11.13.16Z"/>
          </g>
        </g>
      </g>
    </g>
  </g>
</svg>