<?xml version="1.0" encoding="UTF-8"?>
<svg id="Layer_1" xmlns="http://www.w3.org/2000/svg" version="1.1" viewBox="0 0 491.73 349.33">
  <!-- Generator: Adobe Illustrator 30.3.0, SVG Export Plug-In . SVG Version: 2.1.3 Build 182)  -->
  <defs>
    <style>
      .st0 {
        fill: #e8ba3d;
      }

      .st1 {
        fill: #0f0f1f;
      }

      .st2 {
        fill: #698333;
      }

      .st3 {
        fill: #cfe5e4;
      }

      .st4 {
        fill: #ffd155;
      }

      .st5 {
        fill: #e4780e;
      }

      .st6 {
        display: none;
        fill: #e7eaec;
        isolation: isolate;
        opacity: .49;
      }
    </style>
  </defs>
  <rect class="st6" x="-2819.47" y="-2015.05" width="7008.98" height="5540.29"/>
  <g>
    <g>
      <path class="st2" d="M109.76,337.62c0-7.55,5.93-11.54,15.7-11.54,3.63,0,8.93.54,13.75,2.52-.24,1.95-.24,3.57,0,4.79-3.92-2.37-8.99-3.69-13.69-3.69-6.65,0-10.55,3.06-10.55,7.91s3.72,8.12,10.07,8.12c3.45,0,8.03-.99,10.22-5.21-4.82,0-9.8.21-12.49.51.21-1.17.15-2.88-.09-4.28,5.45.24,11.63.24,16.84,0-.21,1.5-.21,3.72,0,5.54-2.22,4.7-8.18,7.04-14.47,7.04-9.92,0-15.28-4.55-15.28-11.72h0Z"/>
      <path class="st2" d="M173.17,348.92c-.57-1.5-1.14-3.09-1.77-4.67-3.87-.12-9.2-.12-13.09-.03-.69,1.65-1.32,3.27-1.92,4.7h-5.87c3.63-7.43,6.98-14.89,10.13-22.32,2.16.27,6.32.39,8.48,0,3.15,7.43,6.56,14.89,10.19,22.32h-6.15ZM170.17,341.16c-1.65-4.14-3.48-8.27-5.39-11.81-1.23,2.28-3.24,7.01-5.21,11.81,3.21.09,7.4.09,10.61,0h0Z"/>
      <path class="st2" d="M192.38,326.59c5.15.09,8.3-.09,13.09-.09,8.36,0,12.28,2.07,12.28,6.53,0,5.69-6.77,6.65-9.86,6.65v.39c5.93,1.02,9.26,5.54,10.79,8.84h-7.1c-1.02-5.63-3.84-7.85-10.01-8.3-1.44-.09-2.64-.12-3.9-.12.06,4.07.15,6.08.33,8.42h-5.63c.36-5.6.36-16.75,0-22.32h.01ZM204.43,337.59c5.09,0,7.85-1.08,7.85-4.02,0-2.73-2.7-3.69-6.95-3.69-2.88,0-5.78.09-7.58.09-.06,2.31-.09,4.73-.09,7.4,2.07.06,4.46.21,6.77.21h0Z"/>
      <path class="st2" d="M232.53,326.59c5.69,0,8.87-.15,12.94-.15,9.77,0,15.55,4.16,15.55,11.18s-6.02,11.36-16.21,11.36c-3.84,0-8.06-.06-12.29-.06.33-5.15.33-17.17,0-22.32h0ZM237.86,345.41c1.74.06,4.28.24,6.95.24,6.89,0,11-2.97,11-8.03s-4.05-7.88-10.82-7.88c-1.98,0-4.49.15-7.16.12-.09,5.24-.06,10.28.03,15.55h0Z"/>
      <path class="st2" d="M275.17,326.59c3.66.3,18.55.51,24.03.09-.12,1.47-.12,3,0,4.49-4.2-.81-12.94-1.29-18.61-1.23-.06,2.13-.09,4.25-.06,6.38,5.57.09,12.49-.15,16.54-.42-.12,1.23-.12,2.58,0,3.78-4.07-.24-10.97-.45-16.54-.33,0,2.01,0,4.11.12,6.17,5.69.06,14.38-.42,18.55-1.2-.12,1.5-.12,3.09,0,4.58h-24.03c.36-5.69.36-16.81,0-22.32h0Z"/>
      <path class="st2" d="M318.74,330.76c-.09,6.02,0,12.13.27,18.16h-5.39c.24-7.43.24-14.89,0-22.32,1.98.24,5.45.3,7.43,0,4.61,6.2,9.44,12.32,14.47,18.34.09-6.11.03-12.26-.27-18.34,1.89.27,3.66.3,5.33,0-.21,7.43-.18,14.89.09,22.32h-7.25c-4.7-6.14-9.59-12.23-14.68-18.16h0Z"/>
      <path class="st2" d="M355.54,346.7c.24-1.68.24-3.33,0-5,2.82,2.7,9.23,3.99,14.71,3.99,4.46,0,6.32-.99,6.32-2.97,0-2.64-2.82-2.94-9.5-3.51-7.34-.66-11.78-1.83-11.78-6.35s3.99-6.65,12.14-6.65c5.72,0,9.14.78,13.36,1.8-.24,1.62-.24,3.15,0,4.67-3.48-1.44-8.09-2.91-13.54-2.91-4.61,0-6.56.93-6.56,2.94,0,2.4,2.4,3.03,8.51,3.51,7.7.6,12.76,1.65,12.76,6.47,0,4.43-4.08,6.56-12.2,6.56-5.48,0-10.46-1.14-14.23-2.55h.01Z"/>
    </g>
    <g>
      <path class="st5" d="M0,268.21h7.09c0,5.89,7.73,10.4,18.14,10.4,9.3,0,16.94-3.68,16.94-9.39,0-7.18-12.06-9.57-19.52-10.86-12.89-2.49-21.27-8.56-21.27-18.51,0-10.96,10.13-18.14,23.02-18.14,13.53,0,23.48,8.01,23.48,18.41h-7.09c0-5.43-7-9.58-16.66-9.58-8.75,0-15.74,3.5-15.74,8.84,0,7,12.8,9.48,18.14,10.4,13.72,2.49,22.65,8.29,22.65,18.69,0,11.51-10.96,18.97-24.31,18.97C10.69,287.44,0,279.15,0,268.2h0Z"/>
      <path class="st5" d="M59.66,220.06h6.26v66.29h-6.26s0-66.29,0-66.29Z"/>
      <path class="st5" d="M126.31,266.18h-43.09c1.75,7.18,8.93,12.25,18.51,12.25,6.81,0,12.89-2.21,16.11-5.62h7.64c-3.87,8.84-12.89,14.64-23.84,14.64-14.36,0-25.13-10.59-25.13-24.58s10.77-24.58,25.04-24.58,24.95,10.5,24.95,24.77c0,1.01-.09,2.12-.18,3.13h-.01ZM83.22,259.46h36.64c-1.66-7.18-9.11-12.15-18.32-12.15s-16.57,4.97-18.32,12.15Z"/>
      <path class="st5" d="M183.76,266.18h-43.09c1.75,7.18,8.93,12.25,18.51,12.25,6.81,0,12.89-2.21,16.11-5.62h7.64c-3.87,8.84-12.89,14.64-23.84,14.64-14.36,0-25.13-10.59-25.13-24.58s10.77-24.58,25.04-24.58,24.95,10.5,24.95,24.77c0,1.01-.09,2.12-.18,3.13h-.01ZM140.67,259.46h36.64c-1.66-7.18-9.11-12.15-18.32-12.15s-16.57,4.97-18.32,12.15h0Z"/>
      <path class="st5" d="M244.16,262.87c0,13.99-10.13,24.58-23.57,24.58-9.11,0-16.39-5.25-19.89-13.17v29.55h-6.26v-64.45h6.26v12.06c3.5-7.92,10.77-13.17,19.89-13.17,13.44,0,23.57,10.59,23.57,24.58v.02ZM237.53,262.87c0-8.93-7.83-15.65-18.41-15.65s-18.41,6.72-18.41,15.65,7.92,15.65,18.41,15.65,18.41-6.72,18.41-15.65Z"/>
      <path class="st5" d="M294.25,239.39l-25.96,64.45h-8.29l8.29-17.49h-2.49l-18.97-46.95h6.72l15.65,36.37h2.03l15.65-36.37h7.37Z"/>
      <path class="st5" d="M377.29,269.22c0,9.85-7.73,17.12-17.95,17.12h-33.24v-63.53h32.13c9.39,0,16.57,6.72,16.57,15.93,0,6.26-3.5,11.6-8.93,14.09,6.91,2.39,11.42,8.84,11.42,16.39h0ZM332.91,232.03v17.31h23.84c6.26,0,11.05-3.68,11.05-8.93,0-4.97-4.6-8.38-11.05-8.38h-23.84ZM370.2,267.57c0-5.89-5.06-10.04-12.24-10.04h-25.04v19.61h25.04c7.18,0,12.24-3.96,12.24-9.58h0Z"/>
      <path class="st5" d="M434.09,266.18h-43.09c1.75,7.18,8.93,12.25,18.51,12.25,6.81,0,12.89-2.21,16.11-5.62h7.64c-3.87,8.84-12.89,14.64-23.84,14.64-14.36,0-25.13-10.59-25.13-24.58s10.77-24.58,25.04-24.58,24.95,10.5,24.95,24.77c0,1.01-.09,2.12-.18,3.13h-.01ZM391,259.46h36.64c-1.66-7.18-9.11-12.15-18.32-12.15s-16.57,4.97-18.32,12.15Z"/>
      <path class="st5" d="M491.54,266.18h-43.09c1.75,7.18,8.93,12.25,18.51,12.25,6.81,0,12.89-2.21,16.11-5.62h7.64c-3.87,8.84-12.89,14.64-23.84,14.64-14.36,0-25.13-10.59-25.13-24.58s10.77-24.58,25.04-24.58,24.95,10.5,24.95,24.77c0,1.01-.09,2.12-.18,3.13h-.01ZM448.45,259.46h36.64c-1.66-7.18-9.11-12.15-18.32-12.15s-16.57,4.97-18.32,12.15Z"/>
    </g>
    <g>
      <g>
        <path class="st5" d="M204.55,112.97c-1.56-1.53-2.49-3.45-3.28-5.42-.39-.97-.54-2.05-.75-3.08-.17-.81.13-1.5.74-2.03.34-.29.72-.56,1.11-.77,1.67-.88,3.06-2.11,4.32-3.48,1.26-1.37,1.95-3.06,2.33-4.86.23-1.1.6-2.08,1.41-2.91.91-.93,1.1-2.11.92-3.38-.1-.65-.07-.69.57-.82,1.57-.33,2.87-1.14,4.08-2.14.85-.69,1.7-1.39,2.61-2,1.09-.74,2.36-1.04,3.67-1.07,3.67-.08,6.96,1,9.73,3.44,1.2,1.05,2.28,2.22,2.83,3.78.22.63.21,1.09-.19,1.68-1.23,1.78-2.28,3.66-3.03,5.71-.98,2.71-2.04,5.39-2.95,8.11-.78,2.31-1.03,4.74-1.12,7.17-.07,1.97.41,3.83,1.46,5.52.48.78,1.18,1.26,1.99,1.63.32.14.41.33.19.61-1.05,1.33-1.86,2.85-3.17,3.99-.52.45-1.06.71-1.74.69-1.67-.03-3.33-.06-4.95-.56-4.44-1.39-8.66-3.21-12.44-5.97-.52-.38-1.05-.75-1.53-1.17-.95-.86-1.87-1.76-2.81-2.65v-.02Z"/>
        <path class="st5" d="M238.19,87.61c.76-.56,1.52-1.13,2.29-1.67,1.58-1.11,3.17-2.21,4.78-3.28.37-.25.8-.47,1.24-.55,2.38-.47,4.71-1.19,7.16-1.23,1.29-.02,2.58-.07,3.82.39.64.24,1.28.49,1.86.83,1.9,1.11,2.61,2.95,1.91,5.06-.27.82-.65,1.62-1.04,2.39-.64,1.26-1.06,2.57-1.4,3.95-.56,2.29.17,4.17,1.55,5.91.33.42.71.79,1.04,1.21.56.71.52,1.19-.2,1.74-.33.25-.71.43-1.08.62-.54.27-1.1.51-1.64.78-1.13.57-1.89,1.5-2.41,2.63-.36.79-.67,1.61-.95,2.43-.81,2.34-1.72,4.62-3.22,6.62-1.7,2.26-3.97,3.17-6.77,2.79-1.55-.21-3.02-.72-4.52-1.13-1.68-.46-3.37-.87-5.07-1.27-.74-.17-1.5-.19-2.26,0-.47.11-.81.3-1.02.79-.23.55-.45.59-.98.3-.57-.31-1.04-.7-1.39-1.29-1.06-1.77-1.31-3.7-1.16-5.69.22-2.85.75-5.63,1.79-8.31.8-2.05,1.55-4.12,2.38-6.15,1.01-2.47,2.35-4.75,4.15-6.74.35-.39.79-.7,1.19-1.05l-.05-.06v-.02Z"/>
        <path class="st5" d="M203.61,113.53c2.93,3.28,6.26,5.55,9.92,7.36,2.04,1.01,4.15,1.86,6.32,2.56,1.37.44,2.75.86,4.21.93.23.01.46.15.69.23-.22.12-.43.27-.67.35-1.93.64-3.92.86-5.94.76-3.27-.16-6.34-1.03-9.28-2.45-2.45-1.19-4.81-2.58-7.39-3.52-1.77-.65-3.57-1.03-5.45-.97-1.29.04-2.58.13-3.79.62-1.06.43-1.92,1.04-2.21,2.25-.17.71-.75,1.02-1.44,1.11-.9.11-1.63-.27-2.28-.84-1.48-1.31-2.21-2.92-2.02-4.95.21-2.21.65-4.34,1.61-6.36.65-1.37,1.12-2.81,1.39-4.32.12-.69.16-1.36-.11-2.01-.26-.62-.07-1.1.36-1.54.13-.13.27-.26.42-.38,1.52-1.22,2.48-2.84,3.32-4.56.71-1.47,1.43-2.93,2.12-4.41.58-1.24,1.5-2.18,2.57-2.98.56-.42,1.21-.61,1.89-.74,2.93-.58,5.81-.44,8.62.59.5.18,1,.35,1.49.56.3.13.48.36.37.73-.44,1.44-.6,2.99-1.42,4.3-.42.67-.86,1.34-1.4,1.91-1.18,1.24-2.49,2.31-4.05,3.09-1,.5-1.74,1.34-2.02,2.49-.19.76-.06,1.51.09,2.25.66,3.11,2.06,5.84,4.07,7.94h0Z"/>
        <path class="st5" d="M210.87,74.54c.94-.65,2.04-1.39,3.12-2.15.9-.63,1.79-1.27,2.66-1.93.88-.67,1.58-1.52,2.12-2.49.57-1.02,1.35-1.81,2.38-2.37.57-.31,1.14-.41,1.75-.28.55.12,1.12.23,1.64.45,2.88,1.25,5.9,1.58,9,1.55,1.36-.02,2.73.17,4.01.68,1.97.79,3.44,2.19,4.61,3.9,1.45,2.13,2.25,4.53,2.81,7.02.09.4.06.84.17,1.24.24.91-.22,1.38-.93,1.84-1.49.97-2.95,1.98-4.39,3.03-1.13.82-2.2,1.73-3.3,2.6-.41.33-.55.32-.75-.15-.35-.81-.79-1.54-1.37-2.21-3.28-3.82-7.48-5.55-12.47-5.39-1.9.06-3.61.79-5.1,1.99-.53.43-1.04.88-1.56,1.32-1.24,1.04-2.57,1.85-4.25,1.97-.66.05-.87.31-.87.96,0,.6.08,1.21.1,1.81.02.72-.24,1.33-.75,1.84-.24.24-.47.33-.81.17-.44-.21-.9-.41-1.37-.55-.51-.16-.73-.49-.79-.99-.33-2.42-.37-4.83.29-7.21.5-1.8,1.19-3.52,2.42-4.96.46-.55,1-1.03,1.63-1.68h0Z"/>
        <path class="st2" d="M274.62,167.54c-.33-.28-1.03-.86-1.06-.87-.14-.05-.26-.15-.37-.25-2.43-2.02-4.57-4.32-6.63-6.7-.79-.92-1.52-1.89-2.27-2.85-.91-1.17-1.83-2.32-2.7-3.52-1.6-2.21-3.17-4.44-4.72-6.69-1.16-1.68-2.3-3.38-3.41-5.11-1.74-2.71-3.43-5.45-5.16-8.17-.57-.9-1.16-1.78-1.75-2.66-.19-.27-1.16-1.38-1.52-2.09-.28-.55-.82-.97-1.21-1.47-.15-.19-.21-.45-.31-.67-.22-.39-.72-.5-.88-1-.88-2.72-2.49-5.01-4.32-7.15-1.04-1.21-2.32-2.02-3.99-2.04-.74,0-.75,0-1.06.74-.8,1.91-2,3.56-3.33,5.12-1.75,2.05-3.97,3.49-6.32,4.75-.33.18-.69.33-.98.56-.41.32-.27.95.23,1.06.4.08.84.12,1.24.04.74-.15,1.47-.36,2.19-.6.42-.14.78-.16,1.2-.04,2.01.56,4,1.2,6.05,1.58,2.62.49,5.27.68,7.84-.36.38-.15.66-.06.92.2.13.13.27.27.38.42,1.51,2.22,3.05,4.43,4.53,6.68,1.43,2.19,2.76,4.44,4.18,6.63,1.43,2.19,2.89,4.36,4.39,6.5,1.77,2.51,3.54,5.02,5.41,7.45,1.71,2.22,3.55,4.34,5.33,6.51.07.09.15.17.22.26.04.05.08.18.06.19-.09.05-.2.13-.28.11-1.24-.3-2.48-.17-3.73-.09-1.52.1-2.93-.32-4.07-1.41-.55-.52-1.08-1.06-1.65-1.57-.31-.28-.62-.59-.99-.75-.67-.28-1.15-.69-1.63-1.26-.8-.95-1.79-1.74-2.71-2.58-.22-.2-.47-.38-.73-.54-.28-.16-.59-.16-.84.08-.24.23-.26.63,0,.93.21.26.48.48.73.71.59.53,1.2,1.05,1.79,1.58.05.05.08.13.12.19-.1.03-.21.12-.28.09-.49-.19-.98-.39-1.46-.63-.37-.19-.71-.43-1.06-.65-.19-.12-.38-.25-.58-.35-.47-.24-.88-.16-1.11.19-.22.33-.12.78.31,1.07,1.58,1.07,3.19,2.09,5.18,2.12,1.2.02,2.07.59,2.87,1.4.61.62,1.31,1.14,1.97,1.7.14.12.31.22.44.36.04.05.02.24-.04.28-.15.11-.32.19-.5.25-2.26.78-4.47.7-6.61-.4-.67-.35-1.33-.73-1.97-1.14-1.34-.86-2.65-1.75-3.98-2.62-.25-.16-.25-.35-.28-.64-.11-1.22-.03-2.36.47-3.52.26-.59.48-1.18.86-1.7.34-.46.76-.85,1.1-1.3.48-.63.98-1.26,1.34-1.96.67-1.26.57-2.55-.06-3.82-.53-1.08-1.36-1.91-2.22-2.71-.47-.44-.93-.89-1.36-1.37-.42-.47-.38-.47.13-.96.24-.23.46-.5.64-.78.64-.99.66-2.16.89-3.26.06-.28-.1-.52-.39-.63-.32-.12-.63-.07-.8.22-.15.25-.25.55-.32.84-.11.44-.13.9-.26,1.34-.13.45-.18.98-.74,1.17-.36-.31-.3-.76-.33-1.16-.09-1.09-.3-2.19.17-3.25.13-.3,0-.6-.28-.79-.29-.19-.66-.15-.92.16-.19.22-.36.5-.43.78-.11.4-.15.82-.16,1.23,0,.53.04,1.06.06,1.59,0,.34-.13.43-.39.27-.6-.36-1.08-.81-1.36-1.47-.38-.88-.67-1.77-.71-2.73-.03-.68-.04-1.37-.12-2.04-.05-.4-.18-.82-.37-1.17-.21-.39-.65-.5-.98-.31-.34.2-.4.5-.34.88.12.74.19,1.5.27,2.25.04.38.04.76.1,1.13.26,1.48.68,2.9,1.83,3.95.55.5,1.21.9,1.86,1.29.41.24.72.53.9.97.44,1.07,1.17,1.93,2.05,2.69.51.45,1.01.93,1.45,1.44,1.52,1.75,1.53,3.03.09,4.87-.65.83-1.3,1.68-1.95,2.51-.05.06-.09.12-.15.17-.18.17-.33.12-.43-.09-.06-.14-.12-.28-.17-.42-.46-1.59-1.23-3.01-2.32-4.26-.28-.32-.33-.65-.28-1.05.13-1.01-.09-1.97-.5-2.88-.7-1.55-1.74-2.83-3.14-3.82-1-.71-2.1-1.19-3.23-1.65-1.08-.43-1.44-1.33-1-2.38.25-.6.52-1.18.74-1.78.33-.88.34-1.79.09-2.69-.12-.43-.34-.84-.58-1.22-.16-.26-.47-.39-.8-.26-.33.12-.51.45-.44.83.03.15.08.29.15.43.55,1.11.4,2.21-.08,3.29-.38.87-.82,1.71-.72,2.71,0,.08-.2.27-.26.25-.8-.2-1.6-.43-2.4-.67-.09-.03-.2-.26-.17-.36.23-.72.41-1.46.74-2.13,1.09-2.16.18-3.96-.95-5.73-.06-.09-.16-.2-.25-.22-.21-.05-.49-.13-.64-.03-.19.12-.37.39-.39.62-.02.24.12.51.23.74.13.27.28.54.45.79.86,1.24.72,2.5.06,3.76-.05.09-.14.21-.22.22-.08,0-.22-.1-.25-.18-.6-1.49-1.76-2.42-3.09-3.21-.44-.26-.95-.48-1.11-1.08-.03-.13-.28-.27-.44-.3-.41-.06-.67-.34-.94-.6-.44-.42-.86-.85-1.32-1.25-.34-.3-.69-.59-1.08-.82-.34-.2-.75-.08-.92.18-.18.29-.14.58.06.85.18.24.38.47.58.7-.28-.14-.56-.29-.84-.43-.34-.18-.66-.19-.93.12-.23.26-.17.69.13,1.03.05.06.11.1.17.15,1.09.85,2.25,1.55,3.69,1.59.25,0,.53.07.74.2.8.51,1.56,1.07,2.36,1.58.8.52,1.31,1.24,1.63,2.12.21.57.46,1.12.71,1.67.45.96,1.23,1.52,2.23,1.79.29.08.59.14.88.22,1.07.27,2.13.53,3.19.82,1.44.4,2.76,1.07,3.91,2.02,1.22,1.02,2.12,2.27,2.5,3.84.02.1,0,.22-.02.33-.12-.03-.26-.03-.36-.09-1.31-.83-2.6-1.7-3.92-2.51-1.51-.93-3.16-1.45-4.94-1.54-.38-.02-.76-.06-1.14-.07-1.37-.04-2.6-.48-3.72-1.24-1.95-1.31-3.59-2.92-4.57-5.09-.7-1.54-1.74-2.65-3.43-3.04-.32-.08-.5-.29-.72-.51-.8-.81-1.6-1.61-2.44-2.38-.75-.69-1.62-1.13-2.69-.9-.36.08-.54-.07-.74-.36-.33-.5-.68-1.01-1.09-1.45-.78-.82-1.6-1.62-2.44-2.38-.45-.4-.96-.73-1.49-1.04-.4-.23-.8-.1-1,.22s-.12.7.25.99c.41.33.87.61,1.26.96.79.7,1.58,1.42,2.33,2.17.36.35.89.63.78,1.27-.52.26-1.05.13-1.55,0-.4-.1-.79-.27-1.15-.48-.49-.28-.96-.6-1.42-.93-.64-.47-1.26-.97-1.89-1.45-.27-.2-.55-.41-.85-.56-.4-.21-.79-.11-1.01.21-.21.3-.13.67.22,1,.11.1.24.19.36.28.75.58,1.48,1.18,2.25,1.73.55.4,1.13.76,1.72,1.1,1.24.72,2.57.89,3.96.6.44-.09.89-.19,1.32-.35.68-.25,1.27-.12,1.81.32.55.46,1.09.94,1.62,1.43.24.22.2.38-.11.49-1.01.36-1.9.92-2.77,1.53-.74.52-1.49,1.05-2.39,1.3-2.79.77-5.47.66-7.97-.99-.81-.53-1.13-1.26-1.13-2.2,0-.56.04-1.16-.11-1.69-.3-1.06-.81-2.04-1.48-2.92-.63-.83-1.38-1.49-2.33-1.95-.54-.26-1.03-.64-1.53-.97-.32-.21-.6-.46-.93-.66-.54-.33-.99-.31-1.24,0-.29.36-.18.83.4,1.24.89.64,1.79,1.29,2.75,1.8,1.68.89,2.49,2.37,3.05,4.06.11.34.04.75,0,1.13-.02.31-.18.39-.45.22-1.1-.68-2.14-1.42-3.05-2.35-.32-.32-.66-.62-1.03-.88-.27-.19-.59-.15-.83.1s-.23.55-.08.84c.07.13.16.26.27.36.45.46.87.96,1.37,1.36,2.12,1.73,4.43,3.2,6.85,4.45,2.88,1.5,5.87,1.23,8.82.13.45-.17.86-.47,1.28-.74.54-.35,1.06-.73,1.6-1.08.64-.42,1.33-.75,2.11-.77,1.59-.04,2.78.61,3.46,2.1.9,1.97,2.22,3.59,3.89,4.97,1.81,1.49,3.8,2.48,6.19,2.52.34,0,.68.04,1.02.06,1.23.07,2.42.37,3.46,1.01,1.62.98,3.22,2,4.75,3.1,1.02.73,1.8,1.73,2.46,2.81.05.09.05.22.07.33-.1,0-.21.04-.31.02-.3-.07-.58-.17-.88-.23-2.24-.41-4.22,0-5.77,1.8-.29.34-.64.65-1,.92-.92.7-1.94,1.02-3.09.68-.49-.14-.54-.19-.45-.71.26-1.54-.17-2.85-1.23-3.96-.6-.63-1.2-1.26-1.84-1.85-1.25-1.16-2.52-2.29-3.8-3.43-.79-.7-1.55-1.46-2.54-1.89-.35-.15-.84-.15-1.04-.4-.21-.27-.13-.75-.19-1.14-.25-1.6-.9-3.04-1.73-4.41-.1-.16-.18-.34-.31-.48-.25-.28-.65-.35-.93-.19-.28.15-.4.53-.26.9.08.21.21.4.32.6.72,1.21,1.32,2.47,1.57,3.87.02.11.05.23.11.32.15.27.11.42-.23.43-.99.04-1.96.22-2.89.57-.4.15-.72.1-1.04-.2-.76-.71-1.66-1.18-2.59-1.61-.24-.11-.5-.2-.75-.23-.28-.03-.57.09-.61.39-.03.24,0,.56.13.73.18.22.51.31.77.46.52.31,1.03.62,1.55.93l.19.06-.2.16c-.48.06-.97.15-1.45.15-.57,0-1.13-.12-1.7-.12-.6,0-1.21.04-1.81.13-.46.07-.69.4-.67.79.02.37.32.63.8.64.23,0,.45-.04.68-.05.42,0,.84-.05,1.25,0,1.89.31,3.69.04,5.46-.64.7-.27,1.44-.48,2.19-.6,1.49-.23,2.86.04,4,1.14.68.66,1.39,1.28,2.1,1.91,1.33,1.18,2.67,2.35,4,3.54.63.56,1.16,1.22,1.33,2.07.05.27-.05.57-.08.85-.21-.15-.44-.28-.63-.44-.32-.27-.63-.55-.91-.86-.73-.78-1.56-1.44-2.51-1.92-.92-.47-1.77-1.02-2.53-1.71-.22-.2-.49-.35-.76-.48-.27-.12-.57-.04-.7.2-.12.2-.19.52-.12.72.1.27.33.51.57.69.72.55,1.44,1.12,2.23,1.56,1.07.6,2.05,1.27,2.9,2.15.81.84,1.69,1.63,2.72,2.22,1.72.99,3.45,1.05,5.16-.03.32-.2.63-.42.95-.61.04-.02.22.08.22.13,0,.23-.05.45-.06.68-.1,1.68-.9,2.76-2.57,3.17-.35.09-.71.29-.97.54-.37.35-.15.96.34,1.06.21.04.46.03.66-.04.57-.19,1.14-.41,1.69-.65,1.13-.49,1.77-1.39,2.03-2.57.13-.59.23-1.19.29-1.79.12-1.27.91-2.06,1.9-2.67.75-.46,1.55-.12,2.3.1.36.1.69.3,1.04.46.64.31.98.8.96,1.53-.03,1.14-.06,2.27-.08,3.41,0,.35-.16.54-.49.66-1.11.4-2.1,1.03-3.08,1.69-.69.47-1.39.92-2.13,1.3-2.08,1.06-4.17,1.28-6.29.06-1.28-.74-2.59-1.42-3.91-2.08-.74-.37-1.51-.69-2.29-.97-.34-.12-.5-.21-.44-.62.19-1.29-.23-2.41-1.13-3.32-.58-.59-1.2-1.18-1.89-1.61-1.45-.91-2.87-1.83-3.99-3.15-.29-.34-.65-.64-1-.93-.59-.48-1.17-.96-1.79-1.39-.37-.26-.8-.16-1.02.13-.2.28-.19.6.1.93.22.25.49.47.74.7.89.82,1.77,1.65,2.68,2.45.59.52,1.21,1.03,1.85,1.49.52.37,1.1.67,1.65,1.01.68.42,1.32.89,1.81,1.53.43.56.68,1.18.63,1.9-.04.48-.22.62-.66.45-.38-.16-.76-.34-1.12-.56-1.27-.77-2.4-1.72-3.45-2.76-.26-.26-.56-.52-.9-.67-.18-.08-.51.04-.71.17-.24.16-.26.47-.13.72.12.23.29.44.47.63,1.28,1.36,2.72,2.52,4.34,3.45.73.42,1.51.71,2.36.75,1.29.06,2.4.56,3.51,1.19,1.41.81,2.88,1.52,4.33,2.25,1.49.74,3.05.8,4.66.43,1.43-.33,2.69-1,3.9-1.79.95-.62,1.93-1.2,2.92-1.76.76-.43,1.53-.35,2.26.13.22.15.44.29.67.43,1.05.68,2.09,1.37,3.14,2.04.8.5,1.63.96,2.44,1.43l.18.18h-.19c-.84.48-1.57,1.07-2.01,1.96-.17.34-.33.68-.54,1-.59.92-1.18,1.85-1.82,2.74-.38.54-.71.6-1.23.2-.41-.32-.76-.73-1.1-1.14-1.28-1.56-2.85-2.46-4.94-2.25-.92.09-1.81-.08-2.63-.56-.16-.09-.34-.16-.53-.21-.33-.08-.64.04-.76.34-.08.22-.05.53.05.74.08.18.32.31.51.43,1.07.68,2.26.9,3.49.74,1.43-.18,2.5.42,3.44,1.38.53.54,1.04,1.09,1.55,1.65.06.07.13.22.1.28-.04.08-.18.16-.27.16-.8,0-1.59-.07-2.39-.07-1.68,0-3.2-.53-4.65-1.33-.89-.5-1.8-.98-2.68-1.5-1.6-.95-3.4-1.25-5.19-1.6-.52-.1-.89.14-.97.54-.08.39.15.73.68.9.4.13.8.24,1.21.29,1.53.2,2.91.81,4.23,1.57,1.05.6,2.14,1.14,3.2,1.73.24.13.71.13.6.5-.05.16-.51.25-.8.28-.33.04-.68-.02-1.02-.04-.57-.03-1.13-.08-1.7-.1-.22,0-.46,0-.67.08-.32.09-.5.33-.5.68s.2.57.52.66c.18.05.37.03.56.04.53.02,1.07,0,1.59.07,1.3.2,2.52-.07,3.61-.72.8-.48,1.6-.63,2.49-.51.26.04.53.02.79.05,1.7.19,3.02-.47,4.1-1.75.94-1.1,1.76-2.28,2.4-3.58.2-.41.37-.84.64-1.2.29-.38.63-.84,1.05-.99.95-.35,1.9-.74,2.97-.68,1.69.1,3.31-.19,4.9-.81,1.27-.5,2.59-.85,3.96-.99,1.79-.18,3.4.25,4.79,1.37,1.21.97,2.35,2.03,3.54,3.02,1.99,1.66,4.16,3.02,6.52,4.1,6.83,3.13,24.47,6.82,24.8,6.9.08.02.31-.14.3-.21-.09-.83.33-1.45.8-2.06.26-.35.21-.47-.19-.7-.96-.53-18-3.45-26.72-8.16-.57-.31-2.4-1.71-2.96-2.19l-.02.02ZM244.95,155.67v-.08l.07.03-.07.04h0Z"/>
        <path class="st2" d="M265.02,153.93c.79.35,1.61.68,2.46.88.51.12.92.31,1.27.66,1.15,1.17,2.58,1.54,4.16,1.37.71-.08,1.42-.25,2.13-.34,1.09-.14,2.18-.29,3.27-.36.82-.05,1.58.23,2.19.79.97.89,1.65,1.98,2.05,3.23.15.46.14.98.64,1.28.1.06.11.35.09.52-.25,1.56.27,3,.71,4.45.29.95.95,1.55,1.93,1.72.67.12,1.35.13,2.03.18.98.08,1.96.11,2.94.22,1.03.11,1.86.6,2.48,1.44.68.91,1.42,1.77,2.07,2.71.91,1.32,1.65,2.73,2.14,4.26.6.32,1.2.64,1.81.95-.05-.47-.17-.94-.35-1.42-.57-1.49-1.16-2.98-2.12-4.26-.52-.7-.56-1.35-.26-2.09.13-.31.25-.63.42-.93.59-1.05.83-2.19.84-3.38.01-1.48-.4-2.83-1.11-4.12-.53-.96-1.01-1.95-1.46-2.95-.48-1.08-.38-1.35.56-2.1.15-.12.31-.22.46-.33.73-.52,1.44-.56,2.21-.06.41.26.87.49,1.34.59.38.09.82.02,1.22-.08.34-.08.54-.52.44-.82-.1-.33-.36-.55-.68-.48-.75.16-1.31-.21-1.9-.57-.95-.58-1.94-.64-2.92-.09-.55.32-1.06.72-1.58,1.1-.23.17-.44.16-.56-.09-.26-.51-.56-1.01-.71-1.54-.78-2.76-1-2.37,1.24-4.3,1.7-1.46,3.65-1.92,5.83-1.54.41.07.83.12,1.23.2,1.22.25,2.16-.2,2.88-1.15.25-.33.47-.69.67-1.05.2-.37.36-.75.51-1.14.29-.72.61-1.39,1.48-1.58.3-.07.4-.33.39-.62-.01-.3-.18-.54-.45-.59-.28-.05-.63-.07-.87.06-.39.21-.78.49-1.05.84-.35.44-.58.97-.87,1.46-.32.56-.61,1.13-.96,1.67-.42.66-1,.89-1.75.5-.06,0-.11,0-.17.02l.14-.16c.11-.15.22-.31.34-.45,1.17-1.29,1.74-2.82,1.84-4.54.03-.64.09-1.29.12-1.93.03-.63.19-1.19.66-1.64.13-.13.29-.29.31-.46.04-.24.04-.53-.06-.75-.12-.27-.42-.27-.7-.22s-.91.66-1.09.92c-.52.75-.59,1.62-.66,2.49-.07.91-.12,1.82-.28,2.71-.34,1.84-2.03,3.54-3.76,3.86-.78.14-1.56.26-2.34.39.02-.86.57-1.53.83-2.3.05-.14.09-.29.17-.42.75-1.16.63-2.37.25-3.61-.47-1.53-1.32-2.82-2.49-3.87-.92-.83-1.63-1.78-2.16-2.89-.28-.59-.27-.56.2-1.01.73-.71,1.48-1.41,2.13-2.19,1.31-1.57,1.76-3.49,2.01-5.47.03-.22.02-.46-.06-.67-.15-.44-.74-.53-1-.15-.16.24-.25.55-.32.83-.15.62-.25,1.27-.42,1.89-.44,1.62-1.35,2.95-2.66,4-.09.07-.19.13-.28.19-.04-.14-.14-.28-.12-.41.2-1.27.44-2.54.62-3.81.13-.9.22-1.8.27-2.71.02-.33-.07-.68-.18-1-.12-.35-.5-.53-.82-.46-.34.08-.5.32-.52.66-.01.15-.02.3,0,.45.1.96-.05,1.88-.22,2.82-.25,1.34-.48,2.69-.65,4.04-.31,2.46.83,4.4,2.31,6.19.36.43.78.82,1.17,1.23-.67.24-1.23-.2-1.84-.3-.15-.02-.28-.13-.42-.16-.92-.24-1.5-.86-1.85-1.71-.32-.77-.62-1.55-.89-2.34-.23-.67-.6-1.24-1.25-1.55-1.09-.52-1.4-1.41-1.26-2.54.06-.53.12-1.05.16-1.58.02-.23.04-.46.02-.68-.04-.43-.36-.76-.71-.74-.36.03-.56.29-.59.6-.12,1.13-.26,2.26-.27,3.39,0,1.09.51,2.03,1.49,2.52.8.4,1.01,1.07,1.21,1.8.06.21-.06.27-.25.22-1.17-.28-2.21-.79-3.09-1.61-.19-.18-.37-.38-.59-.53-.28-.18-.63-.17-.83.09-.14.18-.19.49-.15.72.03.2.21.39.36.56.77.88,1.75,1.46,2.85,1.8,1.35.41,2.59.98,3.51,2.1.21.25.53.44.84.56.74.29,1.48.62,2.25.77,1.17.24,2.09.77,2.85,1.71.45.55.53,1.04.26,1.66-.41.94-.78,1.9-1.23,2.81-.29.57-.68,1.09-1.07,1.6-.33.43-.49.43-.89-.03-.52-.6-1.2-.9-1.93-1.15-.32-.11-.65-.19-.98-.29-.62-.18-1.24-.34-1.68-.88-.13-.16-.38-.25-.59-.33-1.34-.51-2.06-1.46-2.17-2.89-.03-.34-.05-.68-.1-1.02-.24-1.74-.96-2.74-2.88-2.94-.08,0-.15-.02-.23-.03-1.09-.12-1.92-.68-2.51-1.58-.97-1.47-1.79-3-1.67-4.85v-.23c-.04-.35-.26-.54-.58-.6-.31-.06-.56.12-.63.37-.11.43-.19.89-.15,1.33.2,2.06,1.03,3.86,2.32,5.46.67.83,1.53,1.34,2.59,1.52.34.06.67.1,1.01.16.63.1,1.01.49,1.16,1.1.07.29.12.6.12.9.03,1.08.21,2.11.9,2.99.18.23.05.47-.23.44-.49-.04-.97-.16-1.46-.21-.4-.04-.69.16-.79.5-.1.33.06.66.42.83.14.06.29.08.43.13.82.27,1.64.24,2.47.07.37-.07.73-.19,1.09.06.96.64,2.06.93,3.15,1.27.43.13.88.25,1.28.46.81.42,1.02,1.18.56,1.97-.36.62-.46,1.27-.35,1.97.27,1.62.77,3.16,1.61,4.59.25.42.51.85.69,1.3.63,1.63,1.43,3.17,2.24,4.72,1.16,2.19.97,4.38-.31,6.49-.17.28-.37.2-.54.02-.26-.28-.49-.58-.74-.86-.51-.59-1.13-1-1.88-1.22-.25-.07-.51-.14-.77-.21-.52-.15-.53-.17-.4-.72,0-.04.03-.07.04-.11.52-1.6.18-3.06-.76-4.42-.28-.4-.56-.81-.86-1.2-.67-.86-.73-1.8-.36-2.79.12-.32.26-.63.37-.95.22-.66.29-1.35.08-2.01-.28-.86-.64-1.7-.98-2.54-.07-.17-.21-.32-.35-.43-.45-.35-1.05-.1-1.09.47-.02.22.04.45.12.66.15.43.32.85.51,1.26.45.95.47,1.84.02,2.83-.73,1.62-.5,3.17.65,4.57.38.47.73.97,1.04,1.48.46.74.58,1.55.38,2.41-.07.29-.11.6-.19.89-.04.12-.16.3-.24.3-1.02-.02-2.04-.05-3.06-.11-.57-.03-.88-.39-1.03-.91-.15-.51-.27-1.03-.42-1.53-.24-.78-.27-1.56-.09-2.36.1-.44.19-.89.3-1.33.22-.84.2-1.63-.29-2.4-.19-.3-.23-.71-.27-1.07-.03-.33.02-.68.05-1.02.16-1.66-.42-3-1.79-3.92-1.08-.73-1.63-1.72-1.86-2.98-.26-1.38-.59-2.74-1.18-4.03-.42-.91-.95-1.74-1.76-2.34-.39-.29-.6-.66-.79-1.08-.39-.86-.79-1.72-1.21-2.57-.73-1.5-1.8-2.61-3.47-3.04-.84-.22-1.39-.74-1.7-1.53-.48-1.24-.96-2.47-1.43-3.71-.09-.25-.15-.51-.28-.74-.14-.24-.4-.35-.69-.28s-.46.29-.47.57c-.01.22.02.46.09.67.44,1.29.89,2.58,1.36,3.85.5,1.37,1.44,2.28,2.87,2.67.67.18,1.29.55,1.67,1.12.5.76.9,1.58,1.31,2.38.14.28-.01.46-.3.38-.51-.14-1.02-.29-1.52-.48-1.68-.61-3.2-1.56-4.79-2.33-1.38-.67-2.2-1.64-2.4-3.19-.15-1.13-.59-2.19-1.17-3.19-.13-.23-.29-.45-.48-.62-.25-.23-.59-.27-.83-.04-.17.16-.27.45-.28.69-.01.21.11.44.23.63.6,1.03.97,2.14,1.16,3.31.24,1.49,1.03,2.58,2.34,3.31.83.46,1.67.89,2.49,1.36,1.52.87,3.13,1.53,4.81,2.01.98.28,2.01.47,2.65,1.39.74.3,1.06.97,1.29,1.65.35,1,.7,2.01.88,3.05.32,1.89,1.12,3.44,2.76,4.5.43.28.76.67.86,1.16.18.88.24,1.78-.17,2.63l.12.13s-.08-.09-.12-.13c-.17-.2-.36-.38-.52-.59-1.22-1.54-2.79-2.29-4.76-2.13-.38.03-.76.06-1.13.11-.6.09-1.2.18-1.79.3-.36.07-.56-.05-.72-.37-.49-.94-.69-1.92-.48-2.97.28-1.43-.28-2.53-1.39-3.38-1.11-.86-2.25-1.68-3.38-2.51-.21-.15-.46-.31-.7-.34-.23-.03-.54.05-.71.2-.26.22-.23.58-.04.83.17.24.43.42.67.6,1.03.77,2.06,1.55,3.12,2.29.84.58,1.17,1.3,1.03,2.33-.09.66,0,1.36.08,2.03.04.37.24.71.36,1.07s.03.51-.32.51c-.87,0-1.64-.28-2.28-.88-.64-.6-1.19-1.26-1.58-2.06-.33-.68-.66-1.37-1.09-1.99-.85-1.24-1.47-2.56-1.73-4.04-.05-.26-.14-.51-.25-.75-.35-.8-.91-1.39-1.76-1.67-.32-.11-.65-.2-.98-.31-1.01-.33-2.01-.67-3.01-1-.18-.06-.37-.2-.53-.17-.24.04-.52.14-.67.32-.21.25-.17.61.08.82.32.26.67.51,1.06.65.78.29,1.57.57,2.39.72,1.4.27,2.22,1.01,2.42,2.46.16,1.15.69,2.16,1.31,3.12.39.6.74,1.24,1.09,1.86.07.13.13.28.15.42,0,.05-.14.19-.19.18-.88-.29-1.7-.66-2.15-1.55-.17-.34-.35-.67-.52-1.01-.34-.7-.84-1.28-1.49-1.68-1.02-.64-2.09-1.22-3.15-1.81-.29-.17-.59-.13-.83.12-.25.25-.29.64-.04.93.22.26.48.49.76.67.45.28.91.57,1.4.76,1.16.46,1.94,1.27,2.43,2.41.41.94,1.11,1.64,2.04,2.06l.04.04Z"/>
      </g>
      <g>
        <path class="st1" d="M222.77,24c-1.67-.53-3.33-1.06-5-1.57-.5-.15-1.05-.18-1.55-.35-2.18-.72-4.25-.19-6.33.43-.84.25-1.28.84-1.58,1.57-.34.81-.24,1.01.53,1.44,2.14,1.2,4.05,2.71,5.95,4.24.34.28.65.63.89,1,.42.67.15,1.45-.62,1.65-.58.15-1.22.2-1.81.13-1.78-.22-3.54-.52-5.31-.8-.61-.1-.66-.11-.65.48.05,2.81.1,5.62.71,8.38.09.39.41.81.32,1.12-.09.32-.58.52-.87.8-.41.4-.8.81-1.18,1.24-.76.87-.98,1.87-.59,2.96.36.99.73,1.98,1.2,2.93.35.72.59,1.4.32,2.2-.1.29-.07.66,0,.96.17.65.83.8,1.34.35.42-.38.47-.86.31-1.34-.19-.58-.45-1.13-.7-1.69-.47-1.08-.95-2.16-1.43-3.23-.49-1.09.18-1.16,1.09-1.99.54-.49.36.7.94,1.79.46.86.87,1.75,1.31,2.62.15.29.27.6.45.87.43.64.62,1.31.38,2.08-.04.11-.03.24-.03.36,0,.48.2.8.53.84.41.05.7-.13.92-.47.25-.38.25-.78.08-1.17-.26-.6-.54-1.18-.84-1.76-.58-1.12-1.18-2.23-1.76-3.35-.13-.25-.23-.52-.34-.78-.23-.52-.07-.96.31-1.33.26-.26.63-.43.81-.73.6-1,1.46-1.12,2.5-.97.64.09,1.3-.03,1.95-.02.08,0,.24.2.23.3,0,.2-.09.39-.15.59-.52,1.7-.35,3.29.78,4.72.45.58.87,1.18,1.34,1.74.34.41.49.79.28,1.32-.13.33-.19.72-.18,1.07,0,.2.21.48.39.55s.49,0,.65-.14c.68-.53.81-1.61.32-2.45-.16-.28-.37-.53-.57-.79-.2-.26-.41-.5-.62-.76l-.02.02c-.08-.09-.16-.19-.23-.28-1.61-1.97-1.83-3.1-1.05-5.53.15-.46,1.74-1.23,2.04-1.36.29-.12,1.22-.43,1.43-.49.67-.21.64-.32.47-1.01-.21-.87-.41-1.74-.61-2.61-.49-2.07-.4-4.12.24-6.15.78-2.49,1.61-4.96,3.23-7.06.3-.39.04-.48-.24-.57h0Z"/>
        <path class="st3" d="M214.45,30.67c-.93-.72-1.86-1.43-2.79-2.15-2.33-1.8-4.93-3.12-7.54-4.45-1.52-.77-2.99-1.65-4.48-2.48-2.51-1.39-5.19-2.34-7.95-3.05-1.7-.44-3.47-.36-5.23-.33-.04,0-.08.02-.12.02-1.19.09-1.6.73-1.13,1.94.6,1.57,1.76,2.62,3.2,3.36.89.46,1.57,1,2.09,1.92.8,1.41,2.07,2.37,3.65,2.87,1.91.59,3.86.99,5.85,1.19,2.96.31,5.88.8,8.78,1.44,1.74.38,3.54.47,5.32.69.12.01.24,0,.37-.01.32-.04.41-.24.23-.5-.09-.13-.2-.25-.31-.38l.06-.07h0Z"/>
        <path class="st3" d="M218.5,15.52c-.33-1.59-.61-3.2-1.01-4.77-.38-1.49-.87-2.95-1.35-4.42-.44-1.35-.9-2.69-1.4-4.02-.2-.53-.48-1.03-.79-1.5-.55-.85-1.31-1.02-2.2-.56-1.5.77-2.1,2.02-1.82,4,.14.96.41,1.91.58,2.87.07.39.08.8.04,1.19-.11,1.1-.09,2.17.09,3.27.46,2.89,1.65,5.5,3,8.06.4.77.93,1.22,1.88,1.28.96.06,1.9.38,2.85.6.32.07.63.17.95.22.23.03.4-.1.38-.35-.03-.32-.09-.64-.16-.96-.34-1.63-.68-3.27-1.02-4.9h-.03,0Z"/>
        <path class="st0" d="M223.86,25.05s-.21.18-.31.36c-.54.91-1.15,1.79-1.56,2.75-.57,1.34-1,2.75-1.44,4.14-.55,1.75-.5,3.53-.11,5.3.19.87.41,1.74.62,2.61.07.29.24.41.54.29.04-.02.07-.03.11-.05.62-.18,1.4-.2,1.81-.6.41-.4.39-1.2.63-1.79,1.02-2.62,2.2-5.15,3.93-7.39.32-.42.62-.86.95-1.27.62-.78.61-.76-.13-1.48-1.23-1.2-2.67-2.11-4.16-2.94-.26-.14-.51-.27-.88.07h0Z"/>
        <path class="st1" d="M198.89,30.56c-.4.63-.78,1.17-1.09,1.73-.89,1.65-1.68,3.34-1.95,5.23-.09.64-.09.66.51.87,1.24.44,2.37,1.04,3.28,2.03.59.64,1.08,1.31,1.39,2.13.28.73.3.73,1.05.48.12-.04.24-.07.35-.12.78-.34,1.56-.69,2.34-1.02.26-.11.26-.27.18-.48-.1-.22-.21-.44-.32-.66-1.16-2.29-2.1-4.67-2.7-7.17-.19-.78-.23-1.61-.31-2.41-.04-.42-.19-.66-.66-.68-.45-.01-.89-.12-1.33-.12-.26,0-.51.11-.73.17v.02Z"/>
        <path class="st0" d="M205.87,41.2c.26.3.86.41,1.13.21.08-.06.14-.21.13-.3-.05-.4-.15-.8-.21-1.2-.44-2.62-.55-5.25-.54-7.9,0-.61,0-.64-.54-.75-.92-.17-1.85-.3-2.77-.45-.36-.06-.54.08-.5.46.08.69.1,1.38.24,2.06.16.79.36,1.59.65,2.35.67,1.7,1.4,3.38,2.11,5.06.08.18.22.34.3.47h0Z"/>
        <path class="st0" d="M196.84,41.52c.7.72,1.39,1.4,2.37,1.68.23.06.48.09.71.1.2,0,.3-.15.24-.32-.16-.41-.29-.86-.54-1.21-.86-1.18-2.01-1.97-3.39-2.44-.1-.03-.27-.02-.32.04-.06.07-.07.24-.02.34.31.61.63,1.21.95,1.81Z"/>
        <path class="st4" d="M206.66,24.48c.24-.01.42,0,.57-.04.05-.01.04-.2.06-.31-.17-.01-.34-.04-.5-.02-.04,0-.06.18-.13.38h0Z"/>
        <path class="st1" d="M241.57,39.37l-1.15-1.19c-.32-.17-.66-.29-.94-.5-.94-.7-1.99-1.07-3.15-1.19-.36-.04-.73-.07-1.09-.11-.77-.09-.85-.17-.97-.96-.04-.23,0-.39.24-.48,1.03-.43,2.04-.79,3.15-.22.9.46,1.84.85,2.77,1.26.5.22.89.55,1.18,1.01.25.14.49.29.75.4.27.12.57.16.79-.09.27-.3.18-.59-.06-.87-.05-.06-.09-.14-.13-.21-1.42-.7-2.84-1.39-4.27-2.09-.26-.12-.52-.22-.78-.35-.94-.45-1.89-.44-2.85-.1-.27.1-.54.19-.8.31-.32.15-.54.05-.72-.22-.41-.6-.84-1.2-1.25-1.81l-1.5-2.22c-.2-.3-.46-.35-.69-.06-.76.95-1.62,1.85-2.22,2.89-.98,1.68-1.79,3.46-2.65,5.21-.16.32-.25.69-.34,1.04-.14.54-.15,2.12-.15,2.12-.26.64-.51,1.28-.8,1.91-1.31,2.82.72,3.44,3.32,4.79.14.08.29.15.44.22.07.03.16.08.23.07.15-.03.37-.07.41-.17.06-.16.06-.4-.03-.55-.09-.16-.3-.26-.48-.36-.52-.31-1.05-.62-1.58-.92-.8-.47-1.7-.66-1.69-2.01-.1-.29.96-1.9,1.29-3.42,0,0,.79-.02.91.02.29.11.61.23.84.43,1.07.94,2.12,1.9,3.15,2.88.62.6.84,1.38.81,2.23-.02.65-.1,1.3-.1,1.95,0,.16.17.39.31.45.25.1.51-.05.56-.32.29-1.75.5-3.5-.93-4.93-.6-.6-1.25-1.17-1.86-1.76-.17-.16-.29-.37-.43-.56.22-.07.43-.17.66-.19.61-.06,1.22-.07,1.83-.13,1.71-.17,2.62-1,2.99-2.7.08-.38.31-.56.7-.53,1.62.1,3.15.42,4.33,1.66l1.58,1.25c.23.33.48.65.68,1,.22.39.38.84.92.86.13,0,.33-.11.39-.22.29-.55-.11-.92-.42-1.28-.37-.43-.78-.83-1.17-1.24h-.03Z"/>
      </g>
    </g>
  </g>
</svg>