<?xml version="1.0" encoding="UTF-8"?>
<svg id="Layer_1" xmlns="http://www.w3.org/2000/svg" version="1.1" viewBox="0 0 170.62 181.73">
  <!-- Generator: Adobe Illustrator 30.5.1, SVG Export Plug-In . SVG Version: 2.1.4 Build 3)  -->
  <defs>
    <style>
      .st0 {
        fill: #fff;
      }

      .st1 {
        display: none;
        fill: #e7eaec;
        isolation: isolate;
        opacity: .49;
      }
    </style>
  </defs>
  <rect class="st1" x="-2907.15" y="-1650.05" width="7008.98" height="5540.29"/>
  <g>
    <g>
      <path class="st0" d="M0,163.98h6.54c0,5.44,7.14,9.6,16.74,9.6,8.58,0,15.63-3.4,15.63-8.67,0-6.63-11.13-8.84-18.01-10.03-11.9-2.29-19.63-7.9-19.63-17.08,0-10.11,9.35-16.74,21.24-16.74,12.49,0,21.67,7.39,21.67,16.99h-6.54c0-5.01-6.46-8.84-15.38-8.84-8.07,0-14.53,3.23-14.53,8.16,0,6.46,11.81,8.75,16.74,9.6,12.66,2.29,20.9,7.65,20.9,17.25,0,10.62-10.11,17.5-22.43,17.5-13.08,0-22.94-7.65-22.94-17.76v.02Z"/>
      <path class="st0" d="M102.98,164.91c0,9.09-7.14,15.8-16.57,15.8h-30.67v-58.63h29.65c8.67,0,15.29,6.2,15.29,14.7,0,5.78-3.23,10.71-8.24,13,6.37,2.21,10.54,8.16,10.54,15.12h0ZM62.03,130.58v15.97h22.01c5.78,0,10.2-3.4,10.2-8.24,0-4.59-4.25-7.73-10.2-7.73,0,0-22.01,0-22.01,0ZM96.44,163.38c0-5.44-4.67-9.26-11.3-9.26h-23.11v18.1h23.11c6.63,0,11.3-3.65,11.3-8.84h0Z"/>
      <path class="st0" d="M170.62,148.85v31.86h-5.01v-15.38c-4.42,10.2-13.26,16.4-25.32,16.4-17.42,0-30.67-13.09-30.67-30.33s13.26-30.33,30.67-30.33c13.93,0,25.32,8.33,28.89,20.14h-7.39c-3.57-6.88-11.64-11.47-21.5-11.47-13.77,0-24.13,9.35-24.13,21.67s10.37,21.67,24.13,21.67c11.98,0,21.41-6.63,23.79-16.06h-22.69v-8.16h29.23,0Z"/>
    </g>
    <g>
      <path class="st0" d="M103.36,49.86c-2.99-1.64-5.99-3.29-9-4.89-.91-.48-1.94-.75-2.83-1.25-3.9-2.21-8.07-1.97-12.3-1.56-1.7.16-2.76,1.13-3.61,2.41-.95,1.42-.85,1.84.48,2.96,3.65,3.1,6.74,6.72,9.81,10.37.55.66,1.01,1.44,1.32,2.24.56,1.44-.26,2.84-1.8,2.93-1.16.07-2.41-.07-3.51-.43-3.32-1.09-6.59-2.32-9.87-3.53-1.12-.41-1.22-.45-1.42.69-.97,5.4-1.92,10.8-1.79,16.32.02.78.49,1.7.2,2.27-.3.58-1.31.77-1.97,1.2-.93.61-1.84,1.25-2.72,1.93-1.78,1.38-2.58,3.22-2.24,5.45.31,2.04.66,4.08,1.19,6.07.41,1.52.6,2.9-.21,4.34-.29.52-.37,1.23-.34,1.85.08,1.31,1.29,1.85,2.44,1.17.96-.56,1.22-1.47,1.09-2.46-.15-1.18-.44-2.34-.7-3.5-.5-2.25-1.01-4.49-1.53-6.73-.52-2.27.79-2.16,2.84-3.4,1.22-.74.42,1.48,1.12,3.79.55,1.82,1.02,3.67,1.53,5.51.17.61.29,1.25.53,1.83.59,1.39.7,2.75-.06,4.12-.11.2-.15.45-.19.69-.17.92.08,1.6.71,1.81.76.25,1.38,0,1.93-.56.61-.64.76-1.4.59-2.21-.27-1.24-.6-2.47-.95-3.69-.69-2.36-1.42-4.71-2.12-7.08-.16-.53-.25-1.08-.36-1.63-.24-1.08.23-1.86,1.09-2.43.59-.39,1.38-.59,1.83-1.09,1.52-1.7,3.21-1.59,5.16-.93,1.19.4,2.5.44,3.74.7.16.03.38.47.34.66-.08.38-.33.72-.52,1.07-1.65,3.07-1.91,6.17-.29,9.34.65,1.27,1.22,2.59,1.91,3.84.51.91.65,1.71.04,2.64-.38.58-.64,1.3-.74,1.99-.06.38.22.99.54,1.2.31.2.95.17,1.31-.02,1.5-.77,2.15-2.78,1.53-4.57-.21-.6-.51-1.16-.8-1.73-.28-.57-.6-1.12-.9-1.68l-.04.02c-.11-.21-.23-.42-.34-.63-2.35-4.39-2.34-6.62.07-10.99.45-.82,3.8-1.71,4.43-1.84.61-.12,2.51-.36,2.93-.41,1.36-.14,1.34-.37,1.28-1.76-.07-1.75-.12-3.49-.19-5.24-.15-4.15.79-8.05,2.77-11.69,2.43-4.48,4.96-8.89,8.85-12.32.71-.63.25-.91-.25-1.19v.03Z"/>
      <path class="st0" d="M84.91,59.51c-1.51-1.72-3.03-3.44-4.53-5.17-3.78-4.33-8.28-7.84-12.78-11.36-2.62-2.05-5.1-4.29-7.65-6.44-4.28-3.61-9.06-6.44-14.09-8.83-3.1-1.48-6.52-2-9.89-2.59-.08-.01-.16,0-.24,0-2.31-.27-3.33.79-2.9,3.28.56,3.24,2.4,5.69,4.86,7.65,1.54,1.22,2.64,2.51,3.28,4.46,1,3.01,3.07,5.33,5.93,6.87,3.44,1.86,7.03,3.34,10.75,4.49,5.55,1.71,10.96,3.74,16.29,6.06,3.19,1.39,6.61,2.24,9.93,3.32.22.07.47.09.71.11.62.05.88-.3.63-.88-.12-.29-.3-.56-.45-.84l.14-.12h.01Z"/>
      <path class="st0" d="M98.37,32c-.04-3.18.04-6.36-.14-9.53-.17-3-.56-5.99-.93-8.97-.33-2.75-.71-5.49-1.17-8.22-.18-1.08-.54-2.15-.94-3.18-.73-1.84-2.12-2.44-4-1.91-3.16.9-4.78,3.08-4.99,6.98-.1,1.9.07,3.81.04,5.72-.01.77-.15,1.56-.38,2.3-.63,2.06-.98,4.14-1.06,6.3-.21,5.72,1.1,11.16,2.72,16.57.49,1.62,1.32,2.69,3.13,3.16,1.82.48,3.5,1.45,5.25,2.21.58.25,1.14.57,1.73.77.42.14.81-.05.86-.54.06-.63.07-1.27.06-1.9-.03-3.26-.07-6.51-.11-9.77h-.07Z"/>
      <path class="st0" d="M105.06,52.29c-.1.08-.46.28-.72.57-1.37,1.54-2.88,2.99-4.02,4.69-1.59,2.36-2.96,4.89-4.32,7.4-1.72,3.15-2.29,6.57-2.2,10.12.04,1.75.13,3.49.2,5.23.02.58.31.87.92.76.08-.01.16-.04.23-.04,1.26-.12,2.77.14,3.7-.47s1.21-2.14,1.88-3.2c2.95-4.63,6.15-9.05,10.32-12.69.78-.68,1.51-1.41,2.29-2.08,1.48-1.26,1.45-1.22.3-2.88-1.91-2.77-4.32-5.06-6.87-7.21-.44-.37-.88-.7-1.71-.19h0Z"/>
      <path class="st0" d="M55.13,53.45c-1,1.06-1.93,1.94-2.73,2.92-2.33,2.83-4.48,5.77-5.7,9.28-.42,1.2-.42,1.23.66,1.87,2.22,1.31,4.15,2.89,5.52,5.13.88,1.44,1.57,2.93,1.85,4.61.25,1.51.29,1.5,1.83,1.32.24-.03.48-.04.71-.09,1.62-.36,3.24-.74,4.87-1.08.53-.11.61-.43.52-.85-.1-.46-.24-.92-.37-1.38-1.37-4.83-2.26-9.74-2.47-14.75-.07-1.57.17-3.16.32-4.74.07-.82-.12-1.35-1.02-1.54-.85-.19-1.66-.56-2.51-.73-.49-.1-1.02.02-1.47.04h0Z"/>
      <path class="st0" d="M64.5,76.48c.38.68,1.5,1.11,2.09.83.17-.08.34-.34.36-.53.05-.79.02-1.59.04-2.38.15-5.18.92-10.28,1.94-15.35.24-1.16.25-1.23-.76-1.63-1.7-.68-3.42-1.28-5.14-1.9-.66-.24-1.07-.06-1.13.7-.11,1.34-.33,2.69-.31,4.03,0,1.58.09,3.19.37,4.74.64,3.51,1.41,6.99,2.15,10.49.08.38.28.74.39,1.02v-.02Z"/>
      <path class="st0" d="M47.07,73.69c1.07,1.64,2.13,3.21,3.91,4.1.42.21.88.36,1.33.47.39.1.64-.17.58-.52-.15-.85-.23-1.75-.59-2.52-1.21-2.58-3.12-4.54-5.59-5.95-.17-.1-.51-.15-.62-.05-.14.12-.22.44-.17.63.36,1.28.76,2.56,1.15,3.83h0Z"/>
      <path class="st0" d="M72.3,44.73c.47.07.8.17,1.11.13.09,0,.15-.37.23-.58-.31-.09-.63-.21-.94-.23-.09,0-.19.31-.39.67h-.01Z"/>
      <path class="st0" d="M133.62,86.4c-.59-.9-1.18-1.8-1.76-2.71-.54-.44-1.15-.81-1.61-1.32-1.54-1.7-3.42-2.8-5.59-3.46-.68-.21-1.37-.41-2.05-.63-1.44-.46-1.55-.65-1.49-2.2.02-.46.17-.75.63-.84,2.13-.43,4.21-.74,6.13.76,1.56,1.22,3.21,2.32,4.83,3.46.87.61,1.51,1.39,1.88,2.38.42.36.83.74,1.28,1.06.47.33,1.02.52,1.55.12.62-.47.56-1.07.22-1.69-.08-.14-.11-.3-.17-.44-2.46-1.87-4.93-3.74-7.39-5.6-.44-.33-.92-.62-1.37-.95-1.62-1.22-3.45-1.56-5.42-1.26-.55.08-1.1.16-1.64.29-.67.17-1.05-.11-1.3-.7-.57-1.31-1.15-2.62-1.72-3.93-.69-1.61-1.36-3.22-2.05-4.83-.28-.66-.75-.84-1.31-.37-1.81,1.54-3.79,2.94-5.35,4.71-2.5,2.86-4.73,5.97-7.04,8.99-.43.56-.74,1.22-1.04,1.87-.47.99-1.09,4-1.09,4-.73,1.13-1.46,2.27-2.26,3.36-3.56,4.91.08,6.85,4.56,10.44.25.2.49.4.75.59.13.09.28.22.42.21.3,0,.74,0,.85-.17.18-.29.27-.75.16-1.06-.12-.34-.48-.6-.78-.87-.89-.8-1.79-1.58-2.68-2.36-1.36-1.2-3.01-1.9-2.49-4.49-.08-.59,2.55-3.28,3.76-6.06,0,0,1.52.26,1.73.39.52.32,1.08.67,1.44,1.14,1.69,2.21,3.35,4.44,4.95,6.71.96,1.37,1.09,2.96.72,4.58-.28,1.24-.68,2.45-.93,3.7-.06.3.17.81.43.98.45.29,1,.1,1.19-.4,1.22-3.25,2.27-6.53.06-9.79-.93-1.38-1.95-2.71-2.9-4.08-.26-.38-.41-.83-.62-1.24.44-.04.9-.16,1.33-.12,1.19.11,2.36.32,3.55.43,3.34.32,5.4-.94,6.74-4.05.3-.69.82-.95,1.55-.76,3.06.8,5.88,2,7.67,4.81.85.99,1.7,1.99,2.56,2.98.31.72.68,1.43.92,2.17.28.83.42,1.75,1.44,1.99.25.06.67-.08.83-.28.77-.95.14-1.81-.32-2.62-.55-.97-1.18-1.88-1.78-2.82l.02-.02Z"/>
    </g>
  </g>
</svg>